<?xml version="1.0" encoding="UTF-8" standalone="no"?>
<svg width="600.0mm" height="600.0mm" viewBox="0 0 600.0 600.0" xmlns="http://www.w3.org/2000/svg" xmlns:xlink="http://www.w3.org/1999/xlink">
  <g id="CUT" stroke="rgb(255,0,0)" stroke_width="0.2" fill="none">
    <line x1="215.0000" y1="210.0000" x2="215.0000" y2="213.0000" />
    <line x1="215.0000" y1="213.0000" x2="224.0909" y2="213.0000" />
    <line x1="224.0909" y1="213.0000" x2="224.0909" y2="210.0000" />
    <line x1="224.0909" y1="210.0000" x2="233.1818" y2="210.0000" />
    <line x1="233.1818" y1="210.0000" x2="233.1818" y2="213.0000" />
    <line x1="233.1818" y1="213.0000" x2="242.2727" y2="213.0000" />
    <line x1="242.2727" y1="213.0000" x2="242.2727" y2="210.0000" />
    <line x1="242.2727" y1="210.0000" x2="251.3636" y2="210.0000" />
    <line x1="251.3636" y1="210.0000" x2="251.3636" y2="213.0000" />
    <line x1="251.3636" y1="213.0000" x2="260.4545" y2="213.0000" />
    <line x1="260.4545" y1="213.0000" x2="260.4545" y2="210.0000" />
    <line x1="260.4545" y1="210.0000" x2="269.5455" y2="210.0000" />
    <line x1="269.5455" y1="210.0000" x2="269.5455" y2="213.0000" />
    <line x1="269.5455" y1="213.0000" x2="278.6364" y2="213.0000" />
    <line x1="278.6364" y1="213.0000" x2="278.6364" y2="210.0000" />
    <line x1="278.6364" y1="210.0000" x2="287.7273" y2="210.0000" />
    <line x1="287.7273" y1="210.0000" x2="287.7273" y2="213.0000" />
    <line x1="287.7273" y1="213.0000" x2="296.8182" y2="213.0000" />
    <line x1="296.8182" y1="213.0000" x2="296.8182" y2="210.0000" />
    <line x1="296.8182" y1="210.0000" x2="305.9091" y2="210.0000" />
    <line x1="305.9091" y1="210.0000" x2="305.9091" y2="213.0000" />
    <line x1="305.9091" y1="213.0000" x2="315.0000" y2="213.0000" />
    <line x1="315.0000" y1="213.0000" x2="315.0000" y2="210.0000" />
    <line x1="315.0000" y1="210.0000" x2="312.0000" y2="210.0000" />
    <line x1="312.0000" y1="210.0000" x2="312.0000" y2="219.0909" />
    <line x1="312.0000" y1="219.0909" x2="315.0000" y2="219.0909" />
    <line x1="315.0000" y1="219.0909" x2="315.0000" y2="228.1818" />
    <line x1="315.0000" y1="228.1818" x2="312.0000" y2="228.1818" />
    <line x1="312.0000" y1="228.1818" x2="312.0000" y2="237.2727" />
    <line x1="312.0000" y1="237.2727" x2="315.0000" y2="237.2727" />
    <line x1="315.0000" y1="237.2727" x2="315.0000" y2="246.3636" />
    <line x1="315.0000" y1="246.3636" x2="312.0000" y2="246.3636" />
    <line x1="312.0000" y1="246.3636" x2="312.0000" y2="255.4545" />
    <line x1="312.0000" y1="255.4545" x2="315.0000" y2="255.4545" />
    <line x1="315.0000" y1="255.4545" x2="315.0000" y2="264.5455" />
    <line x1="315.0000" y1="264.5455" x2="312.0000" y2="264.5455" />
    <line x1="312.0000" y1="264.5455" x2="312.0000" y2="273.6364" />
    <line x1="312.0000" y1="273.6364" x2="315.0000" y2="273.6364" />
    <line x1="315.0000" y1="273.6364" x2="315.0000" y2="282.7273" />
    <line x1="315.0000" y1="282.7273" x2="312.0000" y2="282.7273" />
    <line x1="312.0000" y1="282.7273" x2="312.0000" y2="291.8182" />
    <line x1="312.0000" y1="291.8182" x2="315.0000" y2="291.8182" />
    <line x1="315.0000" y1="291.8182" x2="315.0000" y2="300.9091" />
    <line x1="315.0000" y1="300.9091" x2="312.0000" y2="300.9091" />
    <line x1="312.0000" y1="300.9091" x2="312.0000" y2="310.0000" />
    <line x1="312.0000" y1="310.0000" x2="315.0000" y2="310.0000" />
    <line x1="315.0000" y1="310.0000" x2="315.0000" y2="307.0000" />
    <line x1="315.0000" y1="307.0000" x2="305.9091" y2="307.0000" />
    <line x1="305.9091" y1="307.0000" x2="305.9091" y2="310.0000" />
    <line x1="305.9091" y1="310.0000" x2="296.8182" y2="310.0000" />
    <line x1="296.8182" y1="310.0000" x2="296.8182" y2="307.0000" />
    <line x1="296.8182" y1="307.0000" x2="287.7273" y2="307.0000" />
    <line x1="287.7273" y1="307.0000" x2="287.7273" y2="310.0000" />
    <line x1="287.7273" y1="310.0000" x2="278.6364" y2="310.0000" />
    <line x1="278.6364" y1="310.0000" x2="278.6364" y2="307.0000" />
    <line x1="278.6364" y1="307.0000" x2="269.5455" y2="307.0000" />
    <line x1="269.5455" y1="307.0000" x2="269.5455" y2="310.0000" />
    <line x1="269.5455" y1="310.0000" x2="260.4545" y2="310.0000" />
    <line x1="260.4545" y1="310.0000" x2="260.4545" y2="307.0000" />
    <line x1="260.4545" y1="307.0000" x2="251.3636" y2="307.0000" />
    <line x1="251.3636" y1="307.0000" x2="251.3636" y2="310.0000" />
    <line x1="251.3636" y1="310.0000" x2="242.2727" y2="310.0000" />
    <line x1="242.2727" y1="310.0000" x2="242.2727" y2="307.0000" />
    <line x1="242.2727" y1="307.0000" x2="233.1818" y2="307.0000" />
    <line x1="233.1818" y1="307.0000" x2="233.1818" y2="310.0000" />
    <line x1="233.1818" y1="310.0000" x2="224.0909" y2="310.0000" />
    <line x1="224.0909" y1="310.0000" x2="224.0909" y2="307.0000" />
    <line x1="224.0909" y1="307.0000" x2="215.0000" y2="307.0000" />
    <line x1="215.0000" y1="307.0000" x2="215.0000" y2="310.0000" />
    <line x1="215.0000" y1="310.0000" x2="218.0000" y2="310.0000" />
    <line x1="218.0000" y1="310.0000" x2="218.0000" y2="300.9091" />
    <line x1="218.0000" y1="300.9091" x2="215.0000" y2="300.9091" />
    <line x1="215.0000" y1="300.9091" x2="215.0000" y2="291.8182" />
    <line x1="215.0000" y1="291.8182" x2="218.0000" y2="291.8182" />
    <line x1="218.0000" y1="291.8182" x2="218.0000" y2="282.7273" />
    <line x1="218.0000" y1="282.7273" x2="215.0000" y2="282.7273" />
    <line x1="215.0000" y1="282.7273" x2="215.0000" y2="273.6364" />
    <line x1="215.0000" y1="273.6364" x2="218.0000" y2="273.6364" />
    <line x1="218.0000" y1="273.6364" x2="218.0000" y2="264.5455" />
    <line x1="218.0000" y1="264.5455" x2="215.0000" y2="264.5455" />
    <line x1="215.0000" y1="264.5455" x2="215.0000" y2="255.4545" />
    <line x1="215.0000" y1="255.4545" x2="218.0000" y2="255.4545" />
    <line x1="218.0000" y1="255.4545" x2="218.0000" y2="246.3636" />
    <line x1="218.0000" y1="246.3636" x2="215.0000" y2="246.3636" />
    <line x1="215.0000" y1="246.3636" x2="215.0000" y2="237.2727" />
    <line x1="215.0000" y1="237.2727" x2="218.0000" y2="237.2727" />
    <line x1="218.0000" y1="237.2727" x2="218.0000" y2="228.1818" />
    <line x1="218.0000" y1="228.1818" x2="215.0000" y2="228.1818" />
    <line x1="215.0000" y1="228.1818" x2="215.0000" y2="219.0909" />
    <line x1="215.0000" y1="219.0909" x2="218.0000" y2="219.0909" />
    <line x1="218.0000" y1="219.0909" x2="218.0000" y2="210.0000" />
    <line x1="218.0000" y1="210.0000" x2="215.0000" y2="210.0000" />
    <line x1="5.0000" y1="5.0000" x2="111.0000" y2="5.0000" />
    <line x1="111.0000" y1="5.0000" x2="108.0000" y2="5.0000" />
    <line x1="108.0000" y1="5.0000" x2="108.0000" y2="14.5238" />
    <line x1="108.0000" y1="14.5238" x2="111.0000" y2="14.5238" />
    <line x1="111.0000" y1="14.5238" x2="111.0000" y2="24.0476" />
    <line x1="111.0000" y1="24.0476" x2="108.0000" y2="24.0476" />
    <line x1="108.0000" y1="24.0476" x2="108.0000" y2="33.5714" />
    <line x1="108.0000" y1="33.5714" x2="111.0000" y2="33.5714" />
    <line x1="111.0000" y1="33.5714" x2="111.0000" y2="43.0952" />
    <line x1="111.0000" y1="43.0952" x2="108.0000" y2="43.0952" />
    <line x1="108.0000" y1="43.0952" x2="108.0000" y2="52.6190" />
    <line x1="108.0000" y1="52.6190" x2="111.0000" y2="52.6190" />
    <line x1="111.0000" y1="52.6190" x2="111.0000" y2="62.1429" />
    <line x1="111.0000" y1="62.1429" x2="108.0000" y2="62.1429" />
    <line x1="108.0000" y1="62.1429" x2="108.0000" y2="71.6667" />
    <line x1="108.0000" y1="71.6667" x2="111.0000" y2="71.6667" />
    <line x1="111.0000" y1="71.6667" x2="111.0000" y2="81.1905" />
    <line x1="111.0000" y1="81.1905" x2="108.0000" y2="81.1905" />
    <line x1="108.0000" y1="81.1905" x2="108.0000" y2="90.7143" />
    <line x1="108.0000" y1="90.7143" x2="111.0000" y2="90.7143" />
    <line x1="111.0000" y1="90.7143" x2="111.0000" y2="100.2381" />
    <line x1="111.0000" y1="100.2381" x2="108.0000" y2="100.2381" />
    <line x1="108.0000" y1="100.2381" x2="108.0000" y2="109.7619" />
    <line x1="108.0000" y1="109.7619" x2="111.0000" y2="109.7619" />
    <line x1="111.0000" y1="109.7619" x2="111.0000" y2="119.2857" />
    <line x1="111.0000" y1="119.2857" x2="108.0000" y2="119.2857" />
    <line x1="108.0000" y1="119.2857" x2="108.0000" y2="128.8095" />
    <line x1="108.0000" y1="128.8095" x2="111.0000" y2="128.8095" />
    <line x1="111.0000" y1="128.8095" x2="111.0000" y2="138.3333" />
    <line x1="111.0000" y1="138.3333" x2="108.0000" y2="138.3333" />
    <line x1="108.0000" y1="138.3333" x2="108.0000" y2="147.8571" />
    <line x1="108.0000" y1="147.8571" x2="111.0000" y2="147.8571" />
    <line x1="111.0000" y1="147.8571" x2="111.0000" y2="157.3810" />
    <line x1="111.0000" y1="157.3810" x2="108.0000" y2="157.3810" />
    <line x1="108.0000" y1="157.3810" x2="108.0000" y2="166.9048" />
    <line x1="108.0000" y1="166.9048" x2="111.0000" y2="166.9048" />
    <line x1="111.0000" y1="166.9048" x2="111.0000" y2="176.4286" />
    <line x1="111.0000" y1="176.4286" x2="108.0000" y2="176.4286" />
    <line x1="108.0000" y1="176.4286" x2="108.0000" y2="185.9524" />
    <line x1="108.0000" y1="185.9524" x2="111.0000" y2="185.9524" />
    <line x1="111.0000" y1="185.9524" x2="111.0000" y2="195.4762" />
    <line x1="111.0000" y1="195.4762" x2="108.0000" y2="195.4762" />
    <line x1="108.0000" y1="195.4762" x2="108.0000" y2="205.0000" />
    <line x1="108.0000" y1="205.0000" x2="111.0000" y2="205.0000" />
    <line x1="5.0000" y1="205.0000" x2="8.0000" y2="205.0000" />
    <line x1="8.0000" y1="205.0000" x2="8.0000" y2="205.0000" />
    <line x1="8.0000" y1="205.0000" x2="17.0909" y2="205.0000" />
    <line x1="17.0909" y1="205.0000" x2="17.0909" y2="208.0000" />
    <line x1="17.0909" y1="208.0000" x2="26.1818" y2="208.0000" />
    <line x1="26.1818" y1="208.0000" x2="26.1818" y2="205.0000" />
    <line x1="26.1818" y1="205.0000" x2="35.2727" y2="205.0000" />
    <line x1="35.2727" y1="205.0000" x2="35.2727" y2="208.0000" />
    <line x1="35.2727" y1="208.0000" x2="44.3636" y2="208.0000" />
    <line x1="44.3636" y1="208.0000" x2="44.3636" y2="205.0000" />
    <line x1="44.3636" y1="205.0000" x2="53.4545" y2="205.0000" />
    <line x1="53.4545" y1="205.0000" x2="53.4545" y2="208.0000" />
    <line x1="53.4545" y1="208.0000" x2="62.5455" y2="208.0000" />
    <line x1="62.5455" y1="208.0000" x2="62.5455" y2="205.0000" />
    <line x1="62.5455" y1="205.0000" x2="71.6364" y2="205.0000" />
    <line x1="71.6364" y1="205.0000" x2="71.6364" y2="208.0000" />
    <line x1="71.6364" y1="208.0000" x2="80.7273" y2="208.0000" />
    <line x1="80.7273" y1="208.0000" x2="80.7273" y2="205.0000" />
    <line x1="80.7273" y1="205.0000" x2="89.8182" y2="205.0000" />
    <line x1="89.8182" y1="205.0000" x2="89.8182" y2="208.0000" />
    <line x1="89.8182" y1="208.0000" x2="98.9091" y2="208.0000" />
    <line x1="98.9091" y1="208.0000" x2="98.9091" y2="205.0000" />
    <line x1="98.9091" y1="205.0000" x2="108.0000" y2="205.0000" />
    <line x1="108.0000" y1="205.0000" x2="108.0000" y2="205.0000" />
    <line x1="108.0000" y1="205.0000" x2="111.0000" y2="205.0000" />
    <line x1="5.0000" y1="205.0000" x2="8.0000" y2="205.0000" />
    <line x1="8.0000" y1="205.0000" x2="8.0000" y2="195.4762" />
    <line x1="8.0000" y1="195.4762" x2="5.0000" y2="195.4762" />
    <line x1="5.0000" y1="195.4762" x2="5.0000" y2="185.9524" />
    <line x1="5.0000" y1="185.9524" x2="8.0000" y2="185.9524" />
    <line x1="8.0000" y1="185.9524" x2="8.0000" y2="176.4286" />
    <line x1="8.0000" y1="176.4286" x2="5.0000" y2="176.4286" />
    <line x1="5.0000" y1="176.4286" x2="5.0000" y2="166.9048" />
    <line x1="5.0000" y1="166.9048" x2="8.0000" y2="166.9048" />
    <line x1="8.0000" y1="166.9048" x2="8.0000" y2="157.3810" />
    <line x1="8.0000" y1="157.3810" x2="5.0000" y2="157.3810" />
    <line x1="5.0000" y1="157.3810" x2="5.0000" y2="147.8571" />
    <line x1="5.0000" y1="147.8571" x2="8.0000" y2="147.8571" />
    <line x1="8.0000" y1="147.8571" x2="8.0000" y2="138.3333" />
    <line x1="8.0000" y1="138.3333" x2="5.0000" y2="138.3333" />
    <line x1="5.0000" y1="138.3333" x2="5.0000" y2="128.8095" />
    <line x1="5.0000" y1="128.8095" x2="8.0000" y2="128.8095" />
    <line x1="8.0000" y1="128.8095" x2="8.0000" y2="119.2857" />
    <line x1="8.0000" y1="119.2857" x2="5.0000" y2="119.2857" />
    <line x1="5.0000" y1="119.2857" x2="5.0000" y2="109.7619" />
    <line x1="5.0000" y1="109.7619" x2="8.0000" y2="109.7619" />
    <line x1="8.0000" y1="109.7619" x2="8.0000" y2="100.2381" />
    <line x1="8.0000" y1="100.2381" x2="5.0000" y2="100.2381" />
    <line x1="5.0000" y1="100.2381" x2="5.0000" y2="90.7143" />
    <line x1="5.0000" y1="90.7143" x2="8.0000" y2="90.7143" />
    <line x1="8.0000" y1="90.7143" x2="8.0000" y2="81.1905" />
    <line x1="8.0000" y1="81.1905" x2="5.0000" y2="81.1905" />
    <line x1="5.0000" y1="81.1905" x2="5.0000" y2="71.6667" />
    <line x1="5.0000" y1="71.6667" x2="8.0000" y2="71.6667" />
    <line x1="8.0000" y1="71.6667" x2="8.0000" y2="62.1429" />
    <line x1="8.0000" y1="62.1429" x2="5.0000" y2="62.1429" />
    <line x1="5.0000" y1="62.1429" x2="5.0000" y2="52.6190" />
    <line x1="5.0000" y1="52.6190" x2="8.0000" y2="52.6190" />
    <line x1="8.0000" y1="52.6190" x2="8.0000" y2="43.0952" />
    <line x1="8.0000" y1="43.0952" x2="5.0000" y2="43.0952" />
    <line x1="5.0000" y1="43.0952" x2="5.0000" y2="33.5714" />
    <line x1="5.0000" y1="33.5714" x2="8.0000" y2="33.5714" />
    <line x1="8.0000" y1="33.5714" x2="8.0000" y2="24.0476" />
    <line x1="8.0000" y1="24.0476" x2="5.0000" y2="24.0476" />
    <line x1="5.0000" y1="24.0476" x2="5.0000" y2="14.5238" />
    <line x1="5.0000" y1="14.5238" x2="8.0000" y2="14.5238" />
    <line x1="8.0000" y1="14.5238" x2="8.0000" y2="5.0000" />
    <line x1="8.0000" y1="5.0000" x2="5.0000" y2="5.0000" />
    <line x1="116.0000" y1="5.0000" x2="222.0000" y2="5.0000" />
    <line x1="222.0000" y1="5.0000" x2="219.0000" y2="5.0000" />
    <line x1="219.0000" y1="5.0000" x2="219.0000" y2="14.5238" />
    <line x1="219.0000" y1="14.5238" x2="222.0000" y2="14.5238" />
    <line x1="222.0000" y1="14.5238" x2="222.0000" y2="24.0476" />
    <line x1="222.0000" y1="24.0476" x2="219.0000" y2="24.0476" />
    <line x1="219.0000" y1="24.0476" x2="219.0000" y2="33.5714" />
    <line x1="219.0000" y1="33.5714" x2="222.0000" y2="33.5714" />
    <line x1="222.0000" y1="33.5714" x2="222.0000" y2="43.0952" />
    <line x1="222.0000" y1="43.0952" x2="219.0000" y2="43.0952" />
    <line x1="219.0000" y1="43.0952" x2="219.0000" y2="52.6190" />
    <line x1="219.0000" y1="52.6190" x2="222.0000" y2="52.6190" />
    <line x1="222.0000" y1="52.6190" x2="222.0000" y2="62.1429" />
    <line x1="222.0000" y1="62.1429" x2="219.0000" y2="62.1429" />
    <line x1="219.0000" y1="62.1429" x2="219.0000" y2="71.6667" />
    <line x1="219.0000" y1="71.6667" x2="222.0000" y2="71.6667" />
    <line x1="222.0000" y1="71.6667" x2="222.0000" y2="81.1905" />
    <line x1="222.0000" y1="81.1905" x2="219.0000" y2="81.1905" />
    <line x1="219.0000" y1="81.1905" x2="219.0000" y2="90.7143" />
    <line x1="219.0000" y1="90.7143" x2="222.0000" y2="90.7143" />
    <line x1="222.0000" y1="90.7143" x2="222.0000" y2="100.2381" />
    <line x1="222.0000" y1="100.2381" x2="219.0000" y2="100.2381" />
    <line x1="219.0000" y1="100.2381" x2="219.0000" y2="109.7619" />
    <line x1="219.0000" y1="109.7619" x2="222.0000" y2="109.7619" />
    <line x1="222.0000" y1="109.7619" x2="222.0000" y2="119.2857" />
    <line x1="222.0000" y1="119.2857" x2="219.0000" y2="119.2857" />
    <line x1="219.0000" y1="119.2857" x2="219.0000" y2="128.8095" />
    <line x1="219.0000" y1="128.8095" x2="222.0000" y2="128.8095" />
    <line x1="222.0000" y1="128.8095" x2="222.0000" y2="138.3333" />
    <line x1="222.0000" y1="138.3333" x2="219.0000" y2="138.3333" />
    <line x1="219.0000" y1="138.3333" x2="219.0000" y2="147.8571" />
    <line x1="219.0000" y1="147.8571" x2="222.0000" y2="147.8571" />
    <line x1="222.0000" y1="147.8571" x2="222.0000" y2="157.3810" />
    <line x1="222.0000" y1="157.3810" x2="219.0000" y2="157.3810" />
    <line x1="219.0000" y1="157.3810" x2="219.0000" y2="166.9048" />
    <line x1="219.0000" y1="166.9048" x2="222.0000" y2="166.9048" />
    <line x1="222.0000" y1="166.9048" x2="222.0000" y2="176.4286" />
    <line x1="222.0000" y1="176.4286" x2="219.0000" y2="176.4286" />
    <line x1="219.0000" y1="176.4286" x2="219.0000" y2="185.9524" />
    <line x1="219.0000" y1="185.9524" x2="222.0000" y2="185.9524" />
    <line x1="222.0000" y1="185.9524" x2="222.0000" y2="195.4762" />
    <line x1="222.0000" y1="195.4762" x2="219.0000" y2="195.4762" />
    <line x1="219.0000" y1="195.4762" x2="219.0000" y2="205.0000" />
    <line x1="219.0000" y1="205.0000" x2="222.0000" y2="205.0000" />
    <line x1="116.0000" y1="205.0000" x2="119.0000" y2="205.0000" />
    <line x1="119.0000" y1="205.0000" x2="119.0000" y2="205.0000" />
    <line x1="119.0000" y1="205.0000" x2="128.0909" y2="205.0000" />
    <line x1="128.0909" y1="205.0000" x2="128.0909" y2="208.0000" />
    <line x1="128.0909" y1="208.0000" x2="137.1818" y2="208.0000" />
    <line x1="137.1818" y1="208.0000" x2="137.1818" y2="205.0000" />
    <line x1="137.1818" y1="205.0000" x2="146.2727" y2="205.0000" />
    <line x1="146.2727" y1="205.0000" x2="146.2727" y2="208.0000" />
    <line x1="146.2727" y1="208.0000" x2="155.3636" y2="208.0000" />
    <line x1="155.3636" y1="208.0000" x2="155.3636" y2="205.0000" />
    <line x1="155.3636" y1="205.0000" x2="164.4545" y2="205.0000" />
    <line x1="164.4545" y1="205.0000" x2="164.4545" y2="208.0000" />
    <line x1="164.4545" y1="208.0000" x2="173.5455" y2="208.0000" />
    <line x1="173.5455" y1="208.0000" x2="173.5455" y2="205.0000" />
    <line x1="173.5455" y1="205.0000" x2="182.6364" y2="205.0000" />
    <line x1="182.6364" y1="205.0000" x2="182.6364" y2="208.0000" />
    <line x1="182.6364" y1="208.0000" x2="191.7273" y2="208.0000" />
    <line x1="191.7273" y1="208.0000" x2="191.7273" y2="205.0000" />
    <line x1="191.7273" y1="205.0000" x2="200.8182" y2="205.0000" />
    <line x1="200.8182" y1="205.0000" x2="200.8182" y2="208.0000" />
    <line x1="200.8182" y1="208.0000" x2="209.9091" y2="208.0000" />
    <line x1="209.9091" y1="208.0000" x2="209.9091" y2="205.0000" />
    <line x1="209.9091" y1="205.0000" x2="219.0000" y2="205.0000" />
    <line x1="219.0000" y1="205.0000" x2="219.0000" y2="205.0000" />
    <line x1="219.0000" y1="205.0000" x2="222.0000" y2="205.0000" />
    <line x1="116.0000" y1="205.0000" x2="119.0000" y2="205.0000" />
    <line x1="119.0000" y1="205.0000" x2="119.0000" y2="195.4762" />
    <line x1="119.0000" y1="195.4762" x2="116.0000" y2="195.4762" />
    <line x1="116.0000" y1="195.4762" x2="116.0000" y2="185.9524" />
    <line x1="116.0000" y1="185.9524" x2="119.0000" y2="185.9524" />
    <line x1="119.0000" y1="185.9524" x2="119.0000" y2="176.4286" />
    <line x1="119.0000" y1="176.4286" x2="116.0000" y2="176.4286" />
    <line x1="116.0000" y1="176.4286" x2="116.0000" y2="166.9048" />
    <line x1="116.0000" y1="166.9048" x2="119.0000" y2="166.9048" />
    <line x1="119.0000" y1="166.9048" x2="119.0000" y2="157.3810" />
    <line x1="119.0000" y1="157.3810" x2="116.0000" y2="157.3810" />
    <line x1="116.0000" y1="157.3810" x2="116.0000" y2="147.8571" />
    <line x1="116.0000" y1="147.8571" x2="119.0000" y2="147.8571" />
    <line x1="119.0000" y1="147.8571" x2="119.0000" y2="138.3333" />
    <line x1="119.0000" y1="138.3333" x2="116.0000" y2="138.3333" />
    <line x1="116.0000" y1="138.3333" x2="116.0000" y2="128.8095" />
    <line x1="116.0000" y1="128.8095" x2="119.0000" y2="128.8095" />
    <line x1="119.0000" y1="128.8095" x2="119.0000" y2="119.2857" />
    <line x1="119.0000" y1="119.2857" x2="116.0000" y2="119.2857" />
    <line x1="116.0000" y1="119.2857" x2="116.0000" y2="109.7619" />
    <line x1="116.0000" y1="109.7619" x2="119.0000" y2="109.7619" />
    <line x1="119.0000" y1="109.7619" x2="119.0000" y2="100.2381" />
    <line x1="119.0000" y1="100.2381" x2="116.0000" y2="100.2381" />
    <line x1="116.0000" y1="100.2381" x2="116.0000" y2="90.7143" />
    <line x1="116.0000" y1="90.7143" x2="119.0000" y2="90.7143" />
    <line x1="119.0000" y1="90.7143" x2="119.0000" y2="81.1905" />
    <line x1="119.0000" y1="81.1905" x2="116.0000" y2="81.1905" />
    <line x1="116.0000" y1="81.1905" x2="116.0000" y2="71.6667" />
    <line x1="116.0000" y1="71.6667" x2="119.0000" y2="71.6667" />
    <line x1="119.0000" y1="71.6667" x2="119.0000" y2="62.1429" />
    <line x1="119.0000" y1="62.1429" x2="116.0000" y2="62.1429" />
    <line x1="116.0000" y1="62.1429" x2="116.0000" y2="52.6190" />
    <line x1="116.0000" y1="52.6190" x2="119.0000" y2="52.6190" />
    <line x1="119.0000" y1="52.6190" x2="119.0000" y2="43.0952" />
    <line x1="119.0000" y1="43.0952" x2="116.0000" y2="43.0952" />
    <line x1="116.0000" y1="43.0952" x2="116.0000" y2="33.5714" />
    <line x1="116.0000" y1="33.5714" x2="119.0000" y2="33.5714" />
    <line x1="119.0000" y1="33.5714" x2="119.0000" y2="24.0476" />
    <line x1="119.0000" y1="24.0476" x2="116.0000" y2="24.0476" />
    <line x1="116.0000" y1="24.0476" x2="116.0000" y2="14.5238" />
    <line x1="116.0000" y1="14.5238" x2="119.0000" y2="14.5238" />
    <line x1="119.0000" y1="14.5238" x2="119.0000" y2="5.0000" />
    <line x1="119.0000" y1="5.0000" x2="116.0000" y2="5.0000" />
    <line x1="56.5000" y1="55.0000" x2="59.5000" y2="55.0000" />
    <line x1="59.5000" y1="55.0000" x2="59.5000" y2="155.0000" />
    <line x1="59.5000" y1="155.0000" x2="56.5000" y2="155.0000" />
    <line x1="56.5000" y1="155.0000" x2="56.5000" y2="55.0000" />
    <line x1="167.5000" y1="55.0000" x2="170.5000" y2="55.0000" />
    <line x1="170.5000" y1="55.0000" x2="170.5000" y2="155.0000" />
    <line x1="170.5000" y1="155.0000" x2="167.5000" y2="155.0000" />
    <line x1="167.5000" y1="155.0000" x2="167.5000" y2="55.0000" />
    <line x1="5.0000" y1="210.0000" x2="105.0000" y2="210.0000" />
    <line x1="105.0000" y1="210.0000" x2="105.0000" y2="210.0000" />
    <line x1="105.0000" y1="210.0000" x2="105.0000" y2="219.5238" />
    <line x1="105.0000" y1="219.5238" x2="102.0000" y2="219.5238" />
    <line x1="102.0000" y1="219.5238" x2="102.0000" y2="229.0476" />
    <line x1="102.0000" y1="229.0476" x2="105.0000" y2="229.0476" />
    <line x1="105.0000" y1="229.0476" x2="105.0000" y2="238.5714" />
    <line x1="105.0000" y1="238.5714" x2="102.0000" y2="238.5714" />
    <line x1="102.0000" y1="238.5714" x2="102.0000" y2="248.0952" />
    <line x1="102.0000" y1="248.0952" x2="105.0000" y2="248.0952" />
    <line x1="105.0000" y1="248.0952" x2="105.0000" y2="257.6190" />
    <line x1="105.0000" y1="257.6190" x2="102.0000" y2="257.6190" />
    <line x1="102.0000" y1="257.6190" x2="102.0000" y2="267.1429" />
    <line x1="102.0000" y1="267.1429" x2="105.0000" y2="267.1429" />
    <line x1="105.0000" y1="267.1429" x2="105.0000" y2="276.6667" />
    <line x1="105.0000" y1="276.6667" x2="102.0000" y2="276.6667" />
    <line x1="102.0000" y1="276.6667" x2="102.0000" y2="286.1905" />
    <line x1="102.0000" y1="286.1905" x2="105.0000" y2="286.1905" />
    <line x1="105.0000" y1="286.1905" x2="105.0000" y2="295.7143" />
    <line x1="105.0000" y1="295.7143" x2="102.0000" y2="295.7143" />
    <line x1="102.0000" y1="295.7143" x2="102.0000" y2="305.2381" />
    <line x1="102.0000" y1="305.2381" x2="105.0000" y2="305.2381" />
    <line x1="105.0000" y1="305.2381" x2="105.0000" y2="314.7619" />
    <line x1="105.0000" y1="314.7619" x2="102.0000" y2="314.7619" />
    <line x1="102.0000" y1="314.7619" x2="102.0000" y2="324.2857" />
    <line x1="102.0000" y1="324.2857" x2="105.0000" y2="324.2857" />
    <line x1="105.0000" y1="324.2857" x2="105.0000" y2="333.8095" />
    <line x1="105.0000" y1="333.8095" x2="102.0000" y2="333.8095" />
    <line x1="102.0000" y1="333.8095" x2="102.0000" y2="343.3333" />
    <line x1="102.0000" y1="343.3333" x2="105.0000" y2="343.3333" />
    <line x1="105.0000" y1="343.3333" x2="105.0000" y2="352.8571" />
    <line x1="105.0000" y1="352.8571" x2="102.0000" y2="352.8571" />
    <line x1="102.0000" y1="352.8571" x2="102.0000" y2="362.3810" />
    <line x1="102.0000" y1="362.3810" x2="105.0000" y2="362.3810" />
    <line x1="105.0000" y1="362.3810" x2="105.0000" y2="371.9048" />
    <line x1="105.0000" y1="371.9048" x2="102.0000" y2="371.9048" />
    <line x1="102.0000" y1="371.9048" x2="102.0000" y2="381.4286" />
    <line x1="102.0000" y1="381.4286" x2="105.0000" y2="381.4286" />
    <line x1="105.0000" y1="381.4286" x2="105.0000" y2="390.9524" />
    <line x1="105.0000" y1="390.9524" x2="102.0000" y2="390.9524" />
    <line x1="102.0000" y1="390.9524" x2="102.0000" y2="400.4762" />
    <line x1="102.0000" y1="400.4762" x2="105.0000" y2="400.4762" />
    <line x1="105.0000" y1="400.4762" x2="105.0000" y2="410.0000" />
    <line x1="105.0000" y1="410.0000" x2="105.0000" y2="410.0000" />
    <line x1="105.0000" y1="410.0000" x2="105.0000" y2="410.0000" />
    <line x1="105.0000" y1="410.0000" x2="95.9091" y2="410.0000" />
    <line x1="95.9091" y1="410.0000" x2="95.9091" y2="407.0000" />
    <line x1="95.9091" y1="407.0000" x2="86.8182" y2="407.0000" />
    <line x1="86.8182" y1="407.0000" x2="86.8182" y2="410.0000" />
    <line x1="86.8182" y1="410.0000" x2="77.7273" y2="410.0000" />
    <line x1="77.7273" y1="410.0000" x2="77.7273" y2="407.0000" />
    <line x1="77.7273" y1="407.0000" x2="68.6364" y2="407.0000" />
    <line x1="68.6364" y1="407.0000" x2="68.6364" y2="410.0000" />
    <line x1="68.6364" y1="410.0000" x2="59.5455" y2="410.0000" />
    <line x1="59.5455" y1="410.0000" x2="59.5455" y2="407.0000" />
    <line x1="59.5455" y1="407.0000" x2="50.4545" y2="407.0000" />
    <line x1="50.4545" y1="407.0000" x2="50.4545" y2="410.0000" />
    <line x1="50.4545" y1="410.0000" x2="41.3636" y2="410.0000" />
    <line x1="41.3636" y1="410.0000" x2="41.3636" y2="407.0000" />
    <line x1="41.3636" y1="407.0000" x2="32.2727" y2="407.0000" />
    <line x1="32.2727" y1="407.0000" x2="32.2727" y2="410.0000" />
    <line x1="32.2727" y1="410.0000" x2="23.1818" y2="410.0000" />
    <line x1="23.1818" y1="410.0000" x2="23.1818" y2="407.0000" />
    <line x1="23.1818" y1="407.0000" x2="14.0909" y2="407.0000" />
    <line x1="14.0909" y1="407.0000" x2="14.0909" y2="410.0000" />
    <line x1="14.0909" y1="410.0000" x2="5.0000" y2="410.0000" />
    <line x1="5.0000" y1="410.0000" x2="5.0000" y2="410.0000" />
    <line x1="5.0000" y1="410.0000" x2="5.0000" y2="410.0000" />
    <line x1="5.0000" y1="410.0000" x2="5.0000" y2="400.4762" />
    <line x1="5.0000" y1="400.4762" x2="8.0000" y2="400.4762" />
    <line x1="8.0000" y1="400.4762" x2="8.0000" y2="390.9524" />
    <line x1="8.0000" y1="390.9524" x2="5.0000" y2="390.9524" />
    <line x1="5.0000" y1="390.9524" x2="5.0000" y2="381.4286" />
    <line x1="5.0000" y1="381.4286" x2="8.0000" y2="381.4286" />
    <line x1="8.0000" y1="381.4286" x2="8.0000" y2="371.9048" />
    <line x1="8.0000" y1="371.9048" x2="5.0000" y2="371.9048" />
    <line x1="5.0000" y1="371.9048" x2="5.0000" y2="362.3810" />
    <line x1="5.0000" y1="362.3810" x2="8.0000" y2="362.3810" />
    <line x1="8.0000" y1="362.3810" x2="8.0000" y2="352.8571" />
    <line x1="8.0000" y1="352.8571" x2="5.0000" y2="352.8571" />
    <line x1="5.0000" y1="352.8571" x2="5.0000" y2="343.3333" />
    <line x1="5.0000" y1="343.3333" x2="8.0000" y2="343.3333" />
    <line x1="8.0000" y1="343.3333" x2="8.0000" y2="333.8095" />
    <line x1="8.0000" y1="333.8095" x2="5.0000" y2="333.8095" />
    <line x1="5.0000" y1="333.8095" x2="5.0000" y2="324.2857" />
    <line x1="5.0000" y1="324.2857" x2="8.0000" y2="324.2857" />
    <line x1="8.0000" y1="324.2857" x2="8.0000" y2="314.7619" />
    <line x1="8.0000" y1="314.7619" x2="5.0000" y2="314.7619" />
    <line x1="5.0000" y1="314.7619" x2="5.0000" y2="305.2381" />
    <line x1="5.0000" y1="305.2381" x2="8.0000" y2="305.2381" />
    <line x1="8.0000" y1="305.2381" x2="8.0000" y2="295.7143" />
    <line x1="8.0000" y1="295.7143" x2="5.0000" y2="295.7143" />
    <line x1="5.0000" y1="295.7143" x2="5.0000" y2="286.1905" />
    <line x1="5.0000" y1="286.1905" x2="8.0000" y2="286.1905" />
    <line x1="8.0000" y1="286.1905" x2="8.0000" y2="276.6667" />
    <line x1="8.0000" y1="276.6667" x2="5.0000" y2="276.6667" />
    <line x1="5.0000" y1="276.6667" x2="5.0000" y2="267.1429" />
    <line x1="5.0000" y1="267.1429" x2="8.0000" y2="267.1429" />
    <line x1="8.0000" y1="267.1429" x2="8.0000" y2="257.6190" />
    <line x1="8.0000" y1="257.6190" x2="5.0000" y2="257.6190" />
    <line x1="5.0000" y1="257.6190" x2="5.0000" y2="248.0952" />
    <line x1="5.0000" y1="248.0952" x2="8.0000" y2="248.0952" />
    <line x1="8.0000" y1="248.0952" x2="8.0000" y2="238.5714" />
    <line x1="8.0000" y1="238.5714" x2="5.0000" y2="238.5714" />
    <line x1="5.0000" y1="238.5714" x2="5.0000" y2="229.0476" />
    <line x1="5.0000" y1="229.0476" x2="8.0000" y2="229.0476" />
    <line x1="8.0000" y1="229.0476" x2="8.0000" y2="219.5238" />
    <line x1="8.0000" y1="219.5238" x2="5.0000" y2="219.5238" />
    <line x1="5.0000" y1="219.5238" x2="5.0000" y2="210.0000" />
    <line x1="5.0000" y1="210.0000" x2="5.0000" y2="210.0000" />
    <line x1="110.0000" y1="210.0000" x2="210.0000" y2="210.0000" />
    <line x1="210.0000" y1="210.0000" x2="210.0000" y2="210.0000" />
    <line x1="210.0000" y1="210.0000" x2="210.0000" y2="219.5238" />
    <line x1="210.0000" y1="219.5238" x2="207.0000" y2="219.5238" />
    <line x1="207.0000" y1="219.5238" x2="207.0000" y2="229.0476" />
    <line x1="207.0000" y1="229.0476" x2="210.0000" y2="229.0476" />
    <line x1="210.0000" y1="229.0476" x2="210.0000" y2="238.5714" />
    <line x1="210.0000" y1="238.5714" x2="207.0000" y2="238.5714" />
    <line x1="207.0000" y1="238.5714" x2="207.0000" y2="248.0952" />
    <line x1="207.0000" y1="248.0952" x2="210.0000" y2="248.0952" />
    <line x1="210.0000" y1="248.0952" x2="210.0000" y2="257.6190" />
    <line x1="210.0000" y1="257.6190" x2="207.0000" y2="257.6190" />
    <line x1="207.0000" y1="257.6190" x2="207.0000" y2="267.1429" />
    <line x1="207.0000" y1="267.1429" x2="210.0000" y2="267.1429" />
    <line x1="210.0000" y1="267.1429" x2="210.0000" y2="276.6667" />
    <line x1="210.0000" y1="276.6667" x2="207.0000" y2="276.6667" />
    <line x1="207.0000" y1="276.6667" x2="207.0000" y2="286.1905" />
    <line x1="207.0000" y1="286.1905" x2="210.0000" y2="286.1905" />
    <line x1="210.0000" y1="286.1905" x2="210.0000" y2="295.7143" />
    <line x1="210.0000" y1="295.7143" x2="207.0000" y2="295.7143" />
    <line x1="207.0000" y1="295.7143" x2="207.0000" y2="305.2381" />
    <line x1="207.0000" y1="305.2381" x2="210.0000" y2="305.2381" />
    <line x1="210.0000" y1="305.2381" x2="210.0000" y2="314.7619" />
    <line x1="210.0000" y1="314.7619" x2="207.0000" y2="314.7619" />
    <line x1="207.0000" y1="314.7619" x2="207.0000" y2="324.2857" />
    <line x1="207.0000" y1="324.2857" x2="210.0000" y2="324.2857" />
    <line x1="210.0000" y1="324.2857" x2="210.0000" y2="333.8095" />
    <line x1="210.0000" y1="333.8095" x2="207.0000" y2="333.8095" />
    <line x1="207.0000" y1="333.8095" x2="207.0000" y2="343.3333" />
    <line x1="207.0000" y1="343.3333" x2="210.0000" y2="343.3333" />
    <line x1="210.0000" y1="343.3333" x2="210.0000" y2="352.8571" />
    <line x1="210.0000" y1="352.8571" x2="207.0000" y2="352.8571" />
    <line x1="207.0000" y1="352.8571" x2="207.0000" y2="362.3810" />
    <line x1="207.0000" y1="362.3810" x2="210.0000" y2="362.3810" />
    <line x1="210.0000" y1="362.3810" x2="210.0000" y2="371.9048" />
    <line x1="210.0000" y1="371.9048" x2="207.0000" y2="371.9048" />
    <line x1="207.0000" y1="371.9048" x2="207.0000" y2="381.4286" />
    <line x1="207.0000" y1="381.4286" x2="210.0000" y2="381.4286" />
    <line x1="210.0000" y1="381.4286" x2="210.0000" y2="390.9524" />
    <line x1="210.0000" y1="390.9524" x2="207.0000" y2="390.9524" />
    <line x1="207.0000" y1="390.9524" x2="207.0000" y2="400.4762" />
    <line x1="207.0000" y1="400.4762" x2="210.0000" y2="400.4762" />
    <line x1="210.0000" y1="400.4762" x2="210.0000" y2="410.0000" />
    <line x1="210.0000" y1="410.0000" x2="210.0000" y2="410.0000" />
    <line x1="210.0000" y1="410.0000" x2="210.0000" y2="410.0000" />
    <line x1="210.0000" y1="410.0000" x2="200.9091" y2="410.0000" />
    <line x1="200.9091" y1="410.0000" x2="200.9091" y2="407.0000" />
    <line x1="200.9091" y1="407.0000" x2="191.8182" y2="407.0000" />
    <line x1="191.8182" y1="407.0000" x2="191.8182" y2="410.0000" />
    <line x1="191.8182" y1="410.0000" x2="182.7273" y2="410.0000" />
    <line x1="182.7273" y1="410.0000" x2="182.7273" y2="407.0000" />
    <line x1="182.7273" y1="407.0000" x2="173.6364" y2="407.0000" />
    <line x1="173.6364" y1="407.0000" x2="173.6364" y2="410.0000" />
    <line x1="173.6364" y1="410.0000" x2="164.5455" y2="410.0000" />
    <line x1="164.5455" y1="410.0000" x2="164.5455" y2="407.0000" />
    <line x1="164.5455" y1="407.0000" x2="155.4545" y2="407.0000" />
    <line x1="155.4545" y1="407.0000" x2="155.4545" y2="410.0000" />
    <line x1="155.4545" y1="410.0000" x2="146.3636" y2="410.0000" />
    <line x1="146.3636" y1="410.0000" x2="146.3636" y2="407.0000" />
    <line x1="146.3636" y1="407.0000" x2="137.2727" y2="407.0000" />
    <line x1="137.2727" y1="407.0000" x2="137.2727" y2="410.0000" />
    <line x1="137.2727" y1="410.0000" x2="128.1818" y2="410.0000" />
    <line x1="128.1818" y1="410.0000" x2="128.1818" y2="407.0000" />
    <line x1="128.1818" y1="407.0000" x2="119.0909" y2="407.0000" />
    <line x1="119.0909" y1="407.0000" x2="119.0909" y2="410.0000" />
    <line x1="119.0909" y1="410.0000" x2="110.0000" y2="410.0000" />
    <line x1="110.0000" y1="410.0000" x2="110.0000" y2="410.0000" />
    <line x1="110.0000" y1="410.0000" x2="110.0000" y2="410.0000" />
    <line x1="110.0000" y1="410.0000" x2="110.0000" y2="400.4762" />
    <line x1="110.0000" y1="400.4762" x2="113.0000" y2="400.4762" />
    <line x1="113.0000" y1="400.4762" x2="113.0000" y2="390.9524" />
    <line x1="113.0000" y1="390.9524" x2="110.0000" y2="390.9524" />
    <line x1="110.0000" y1="390.9524" x2="110.0000" y2="381.4286" />
    <line x1="110.0000" y1="381.4286" x2="113.0000" y2="381.4286" />
    <line x1="113.0000" y1="381.4286" x2="113.0000" y2="371.9048" />
    <line x1="113.0000" y1="371.9048" x2="110.0000" y2="371.9048" />
    <line x1="110.0000" y1="371.9048" x2="110.0000" y2="362.3810" />
    <line x1="110.0000" y1="362.3810" x2="113.0000" y2="362.3810" />
    <line x1="113.0000" y1="362.3810" x2="113.0000" y2="352.8571" />
    <line x1="113.0000" y1="352.8571" x2="110.0000" y2="352.8571" />
    <line x1="110.0000" y1="352.8571" x2="110.0000" y2="343.3333" />
    <line x1="110.0000" y1="343.3333" x2="113.0000" y2="343.3333" />
    <line x1="113.0000" y1="343.3333" x2="113.0000" y2="333.8095" />
    <line x1="113.0000" y1="333.8095" x2="110.0000" y2="333.8095" />
    <line x1="110.0000" y1="333.8095" x2="110.0000" y2="324.2857" />
    <line x1="110.0000" y1="324.2857" x2="113.0000" y2="324.2857" />
    <line x1="113.0000" y1="324.2857" x2="113.0000" y2="314.7619" />
    <line x1="113.0000" y1="314.7619" x2="110.0000" y2="314.7619" />
    <line x1="110.0000" y1="314.7619" x2="110.0000" y2="305.2381" />
    <line x1="110.0000" y1="305.2381" x2="113.0000" y2="305.2381" />
    <line x1="113.0000" y1="305.2381" x2="113.0000" y2="295.7143" />
    <line x1="113.0000" y1="295.7143" x2="110.0000" y2="295.7143" />
    <line x1="110.0000" y1="295.7143" x2="110.0000" y2="286.1905" />
    <line x1="110.0000" y1="286.1905" x2="113.0000" y2="286.1905" />
    <line x1="113.0000" y1="286.1905" x2="113.0000" y2="276.6667" />
    <line x1="113.0000" y1="276.6667" x2="110.0000" y2="276.6667" />
    <line x1="110.0000" y1="276.6667" x2="110.0000" y2="267.1429" />
    <line x1="110.0000" y1="267.1429" x2="113.0000" y2="267.1429" />
    <line x1="113.0000" y1="267.1429" x2="113.0000" y2="257.6190" />
    <line x1="113.0000" y1="257.6190" x2="110.0000" y2="257.6190" />
    <line x1="110.0000" y1="257.6190" x2="110.0000" y2="248.0952" />
    <line x1="110.0000" y1="248.0952" x2="113.0000" y2="248.0952" />
    <line x1="113.0000" y1="248.0952" x2="113.0000" y2="238.5714" />
    <line x1="113.0000" y1="238.5714" x2="110.0000" y2="238.5714" />
    <line x1="110.0000" y1="238.5714" x2="110.0000" y2="229.0476" />
    <line x1="110.0000" y1="229.0476" x2="113.0000" y2="229.0476" />
    <line x1="113.0000" y1="229.0476" x2="113.0000" y2="219.5238" />
    <line x1="113.0000" y1="219.5238" x2="110.0000" y2="219.5238" />
    <line x1="110.0000" y1="219.5238" x2="110.0000" y2="210.0000" />
    <line x1="110.0000" y1="210.0000" x2="110.0000" y2="210.0000" />
    <line x1="323.0000" y1="210.0000" x2="422.5000" y2="210.0000" />
    <line x1="422.5000" y1="210.0000" x2="422.5000" y2="260.2500" />
    <line x1="422.5000" y1="260.2500" x2="425.5000" y2="260.2500" />
    <line x1="425.5000" y1="260.2500" x2="425.5000" y2="359.7500" />
    <line x1="425.5000" y1="359.7500" x2="422.5000" y2="359.7500" />
    <line x1="422.5000" y1="359.7500" x2="422.5000" y2="407.0000" />
    <line x1="422.5000" y1="407.0000" x2="323.0000" y2="407.0000" />
    <line x1="323.0000" y1="407.0000" x2="323.0000" y2="359.7500" />
    <line x1="323.0000" y1="359.7500" x2="320.0000" y2="359.7500" />
    <line x1="320.0000" y1="359.7500" x2="320.0000" y2="260.2500" />
    <line x1="320.0000" y1="260.2500" x2="323.0000" y2="260.2500" />
    <line x1="323.0000" y1="260.2500" x2="323.0000" y2="210.0000" />
    <line x1="435.0000" y1="210.0000" x2="541.0000" y2="210.0000" />
    <line x1="541.0000" y1="210.0000" x2="541.0000" y2="316.0000" />
    <line x1="541.0000" y1="316.0000" x2="435.0000" y2="316.0000" />
    <line x1="435.0000" y1="316.0000" x2="435.0000" y2="210.0000" />
    <line x1="438.0000" y1="321.0000" x2="537.7000" y2="321.0000" />
    <line x1="537.7000" y1="321.0000" x2="537.7000" y2="324.0000" />
    <line x1="537.7000" y1="324.0000" x2="438.0000" y2="324.0000" />
    <line x1="438.0000" y1="324.0000" x2="438.0000" y2="321.0000" />
    <line x1="438.0000" y1="329.0000" x2="537.7000" y2="329.0000" />
    <line x1="537.7000" y1="329.0000" x2="537.7000" y2="332.0000" />
    <line x1="537.7000" y1="332.0000" x2="438.0000" y2="332.0000" />
    <line x1="438.0000" y1="332.0000" x2="438.0000" y2="329.0000" />
    <line x1="546.0000" y1="213.0000" x2="549.0000" y2="213.0000" />
    <line x1="549.0000" y1="213.0000" x2="549.0000" y2="312.7000" />
    <line x1="549.0000" y1="312.7000" x2="546.0000" y2="312.7000" />
    <line x1="546.0000" y1="312.7000" x2="546.0000" y2="213.0000" />
    <line x1="554.0000" y1="213.0000" x2="557.0000" y2="213.0000" />
    <line x1="557.0000" y1="213.0000" x2="557.0000" y2="312.7000" />
    <line x1="557.0000" y1="312.7000" x2="554.0000" y2="312.7000" />
    <line x1="554.0000" y1="312.7000" x2="554.0000" y2="213.0000" />
  </g>
  <g id="ENGRAVE" stroke="rgb(0,0,255)" stroke_width="0.2" fill="none">
    <text x="265.0000" y="235.0000" font-family="sans-serif" font-size="8" text-anchor="middle" dominant-baseline="middle">LORENZO</text>
    <text x="265.0000" y="245.0000" font-family="sans-serif" font-size="8" text-anchor="middle" dominant-baseline="middle">DIANE</text>
    <polyline points="55.0000,285.3590 56.8750,288.6066 53.1250,288.6066 55.0000,285.3590" />
    <polyline points="56.8750,288.6066 58.7500,291.8542 55.0000,291.8542 56.8750,288.6066" />
    <polyline points="53.1250,288.6066 55.0000,291.8542 51.2500,291.8542 53.1250,288.6066" />
    <polyline points="58.7500,291.8542 60.6250,295.1018 56.8750,295.1018 58.7500,291.8542" />
    <polyline points="60.6250,295.1018 62.5000,298.3494 58.7500,298.3494 60.6250,295.1018" />
    <polyline points="56.8750,295.1018 58.7500,298.3494 55.0000,298.3494 56.8750,295.1018" />
    <polyline points="51.2500,291.8542 53.1250,295.1018 49.3750,295.1018 51.2500,291.8542" />
    <polyline points="53.1250,295.1018 55.0000,298.3494 51.2500,298.3494 53.1250,295.1018" />
    <polyline points="49.3750,295.1018 51.2500,298.3494 47.5000,298.3494 49.3750,295.1018" />
    <polyline points="62.5000,298.3494 64.3750,301.5970 60.6250,301.5970 62.5000,298.3494" />
    <polyline points="64.3750,301.5970 66.2500,304.8446 62.5000,304.8446 64.3750,301.5970" />
    <polyline points="60.6250,301.5970 62.5000,304.8446 58.7500,304.8446 60.6250,301.5970" />
    <polyline points="66.2500,304.8446 68.1250,308.0922 64.3750,308.0922 66.2500,304.8446" />
    <polyline points="68.1250,308.0922 70.0000,311.3397 66.2500,311.3397 68.1250,308.0922" />
    <polyline points="64.3750,308.0922 66.2500,311.3397 62.5000,311.3397 64.3750,308.0922" />
    <polyline points="58.7500,304.8446 60.6250,308.0922 56.8750,308.0922 58.7500,304.8446" />
    <polyline points="60.6250,308.0922 62.5000,311.3397 58.7500,311.3397 60.6250,308.0922" />
    <polyline points="56.8750,308.0922 58.7500,311.3397 55.0000,311.3397 56.8750,308.0922" />
    <polyline points="47.5000,298.3494 49.3750,301.5970 45.6250,301.5970 47.5000,298.3494" />
    <polyline points="49.3750,301.5970 51.2500,304.8446 47.5000,304.8446 49.3750,301.5970" />
    <polyline points="45.6250,301.5970 47.5000,304.8446 43.7500,304.8446 45.6250,301.5970" />
    <polyline points="51.2500,304.8446 53.1250,308.0922 49.3750,308.0922 51.2500,304.8446" />
    <polyline points="53.1250,308.0922 55.0000,311.3397 51.2500,311.3397 53.1250,308.0922" />
    <polyline points="49.3750,308.0922 51.2500,311.3397 47.5000,311.3397 49.3750,308.0922" />
    <polyline points="43.7500,304.8446 45.6250,308.0922 41.8750,308.0922 43.7500,304.8446" />
    <polyline points="45.6250,308.0922 47.5000,311.3397 43.7500,311.3397 45.6250,308.0922" />
    <polyline points="41.8750,308.0922 43.7500,311.3397 40.0000,311.3397 41.8750,308.0922" />
    <polyline points="70.0000,311.3397 71.8750,314.5873 68.1250,314.5873 70.0000,311.3397" />
    <polyline points="71.8750,314.5873 73.7500,317.8349 70.0000,317.8349 71.8750,314.5873" />
    <polyline points="68.1250,314.5873 70.0000,317.8349 66.2500,317.8349 68.1250,314.5873" />
    <polyline points="73.7500,317.8349 75.6250,321.0825 71.8750,321.0825 73.7500,317.8349" />
    <polyline points="75.6250,321.0825 77.5000,324.3301 73.7500,324.3301 75.6250,321.0825" />
    <polyline points="71.8750,321.0825 73.7500,324.3301 70.0000,324.3301 71.8750,321.0825" />
    <polyline points="66.2500,317.8349 68.1250,321.0825 64.3750,321.0825 66.2500,317.8349" />
    <polyline points="68.1250,321.0825 70.0000,324.3301 66.2500,324.3301 68.1250,321.0825" />
    <polyline points="64.3750,321.0825 66.2500,324.3301 62.5000,324.3301 64.3750,321.0825" />
    <polyline points="77.5000,324.3301 79.3750,327.5777 75.6250,327.5777 77.5000,324.3301" />
    <polyline points="79.3750,327.5777 81.2500,330.8253 77.5000,330.8253 79.3750,327.5777" />
    <polyline points="75.6250,327.5777 77.5000,330.8253 73.7500,330.8253 75.6250,327.5777" />
    <polyline points="81.2500,330.8253 83.1250,334.0729 79.3750,334.0729 81.2500,330.8253" />
    <polyline points="83.1250,334.0729 85.0000,337.3205 81.2500,337.3205 83.1250,334.0729" />
    <polyline points="79.3750,334.0729 81.2500,337.3205 77.5000,337.3205 79.3750,334.0729" />
    <polyline points="73.7500,330.8253 75.6250,334.0729 71.8750,334.0729 73.7500,330.8253" />
    <polyline points="75.6250,334.0729 77.5000,337.3205 73.7500,337.3205 75.6250,334.0729" />
    <polyline points="71.8750,334.0729 73.7500,337.3205 70.0000,337.3205 71.8750,334.0729" />
    <polyline points="62.5000,324.3301 64.3750,327.5777 60.6250,327.5777 62.5000,324.3301" />
    <polyline points="64.3750,327.5777 66.2500,330.8253 62.5000,330.8253 64.3750,327.5777" />
    <polyline points="60.6250,327.5777 62.5000,330.8253 58.7500,330.8253 60.6250,327.5777" />
    <polyline points="66.2500,330.8253 68.1250,334.0729 64.3750,334.0729 66.2500,330.8253" />
    <polyline points="68.1250,334.0729 70.0000,337.3205 66.2500,337.3205 68.1250,334.0729" />
    <polyline points="64.3750,334.0729 66.2500,337.3205 62.5000,337.3205 64.3750,334.0729" />
    <polyline points="58.7500,330.8253 60.6250,334.0729 56.8750,334.0729 58.7500,330.8253" />
    <polyline points="60.6250,334.0729 62.5000,337.3205 58.7500,337.3205 60.6250,334.0729" />
    <polyline points="56.8750,334.0729 58.7500,337.3205 55.0000,337.3205 56.8750,334.0729" />
    <polyline points="40.0000,311.3397 41.8750,314.5873 38.1250,314.5873 40.0000,311.3397" />
    <polyline points="41.8750,314.5873 43.7500,317.8349 40.0000,317.8349 41.8750,314.5873" />
    <polyline points="38.1250,314.5873 40.0000,317.8349 36.2500,317.8349 38.1250,314.5873" />
    <polyline points="43.7500,317.8349 45.6250,321.0825 41.8750,321.0825 43.7500,317.8349" />
    <polyline points="45.6250,321.0825 47.5000,324.3301 43.7500,324.3301 45.6250,321.0825" />
    <polyline points="41.8750,321.0825 43.7500,324.3301 40.0000,324.3301 41.8750,321.0825" />
    <polyline points="36.2500,317.8349 38.1250,321.0825 34.3750,321.0825 36.2500,317.8349" />
    <polyline points="38.1250,321.0825 40.0000,324.3301 36.2500,324.3301 38.1250,321.0825" />
    <polyline points="34.3750,321.0825 36.2500,324.3301 32.5000,324.3301 34.3750,321.0825" />
    <polyline points="47.5000,324.3301 49.3750,327.5777 45.6250,327.5777 47.5000,324.3301" />
    <polyline points="49.3750,327.5777 51.2500,330.8253 47.5000,330.8253 49.3750,327.5777" />
    <polyline points="45.6250,327.5777 47.5000,330.8253 43.7500,330.8253 45.6250,327.5777" />
    <polyline points="51.2500,330.8253 53.1250,334.0729 49.3750,334.0729 51.2500,330.8253" />
    <polyline points="53.1250,334.0729 55.0000,337.3205 51.2500,337.3205 53.1250,334.0729" />
    <polyline points="49.3750,334.0729 51.2500,337.3205 47.5000,337.3205 49.3750,334.0729" />
    <polyline points="43.7500,330.8253 45.6250,334.0729 41.8750,334.0729 43.7500,330.8253" />
    <polyline points="45.6250,334.0729 47.5000,337.3205 43.7500,337.3205 45.6250,334.0729" />
    <polyline points="41.8750,334.0729 43.7500,337.3205 40.0000,337.3205 41.8750,334.0729" />
    <polyline points="32.5000,324.3301 34.3750,327.5777 30.6250,327.5777 32.5000,324.3301" />
    <polyline points="34.3750,327.5777 36.2500,330.8253 32.5000,330.8253 34.3750,327.5777" />
    <polyline points="30.6250,327.5777 32.5000,330.8253 28.7500,330.8253 30.6250,327.5777" />
    <polyline points="36.2500,330.8253 38.1250,334.0729 34.3750,334.0729 36.2500,330.8253" />
    <polyline points="38.1250,334.0729 40.0000,337.3205 36.2500,337.3205 38.1250,334.0729" />
    <polyline points="34.3750,334.0729 36.2500,337.3205 32.5000,337.3205 34.3750,334.0729" />
    <polyline points="28.7500,330.8253 30.6250,334.0729 26.8750,334.0729 28.7500,330.8253" />
    <polyline points="30.6250,334.0729 32.5000,337.3205 28.7500,337.3205 30.6250,334.0729" />
    <polyline points="26.8750,334.0729 28.7500,337.3205 25.0000,337.3205 26.8750,334.0729" />
    <text x="160.0000" y="285.0000" font-family="sans-serif" font-size="8" text-anchor="middle" dominant-baseline="middle">DIGITAL</text>
    <text x="160.0000" y="295.0000" font-family="sans-serif" font-size="8" text-anchor="middle" dominant-baseline="middle">MANUFACTURING</text>
  </g>
</svg>
