<?xml version="1.0" encoding="UTF-8" standalone="no"?>
<svg width="600mm" height="600mm" viewBox="0 0 600 600" xmlns="http://www.w3.org/2000/svg">
  <g id="CUT" stroke="rgb(255,0,0)" stroke_width="0.2" fill="none">
    <line x1="215.0000" y1="110.0000" x2="215.0000" y2="113.0000" />
    <line x1="215.0000" y1="113.0000" x2="224.0909" y2="113.0000" />
    <line x1="224.0909" y1="113.0000" x2="224.0909" y2="110.0000" />
    <line x1="224.0909" y1="110.0000" x2="233.1818" y2="110.0000" />
    <line x1="233.1818" y1="110.0000" x2="233.1818" y2="113.0000" />
    <line x1="233.1818" y1="113.0000" x2="242.2727" y2="113.0000" />
    <line x1="242.2727" y1="113.0000" x2="242.2727" y2="110.0000" />
    <line x1="242.2727" y1="110.0000" x2="251.3636" y2="110.0000" />
    <line x1="251.3636" y1="110.0000" x2="251.3636" y2="113.0000" />
    <line x1="251.3636" y1="113.0000" x2="260.4545" y2="113.0000" />
    <line x1="260.4545" y1="113.0000" x2="260.4545" y2="110.0000" />
    <line x1="260.4545" y1="110.0000" x2="269.5455" y2="110.0000" />
    <line x1="269.5455" y1="110.0000" x2="269.5455" y2="113.0000" />
    <line x1="269.5455" y1="113.0000" x2="278.6364" y2="113.0000" />
    <line x1="278.6364" y1="113.0000" x2="278.6364" y2="110.0000" />
    <line x1="278.6364" y1="110.0000" x2="287.7273" y2="110.0000" />
    <line x1="287.7273" y1="110.0000" x2="287.7273" y2="113.0000" />
    <line x1="287.7273" y1="113.0000" x2="296.8182" y2="113.0000" />
    <line x1="296.8182" y1="113.0000" x2="296.8182" y2="110.0000" />
    <line x1="296.8182" y1="110.0000" x2="305.9091" y2="110.0000" />
    <line x1="305.9091" y1="110.0000" x2="305.9091" y2="113.0000" />
    <line x1="305.9091" y1="113.0000" x2="315.0000" y2="113.0000" />
    <line x1="315.0000" y1="113.0000" x2="315.0000" y2="110.0000" />
    <line x1="315.0000" y1="110.0000" x2="312.0000" y2="110.0000" />
    <line x1="312.0000" y1="110.0000" x2="312.0000" y2="119.0909" />
    <line x1="312.0000" y1="119.0909" x2="315.0000" y2="119.0909" />
    <line x1="315.0000" y1="119.0909" x2="315.0000" y2="128.1818" />
    <line x1="315.0000" y1="128.1818" x2="312.0000" y2="128.1818" />
    <line x1="312.0000" y1="128.1818" x2="312.0000" y2="137.2727" />
    <line x1="312.0000" y1="137.2727" x2="315.0000" y2="137.2727" />
    <line x1="315.0000" y1="137.2727" x2="315.0000" y2="146.3636" />
    <line x1="315.0000" y1="146.3636" x2="312.0000" y2="146.3636" />
    <line x1="312.0000" y1="146.3636" x2="312.0000" y2="155.4545" />
    <line x1="312.0000" y1="155.4545" x2="315.0000" y2="155.4545" />
    <line x1="315.0000" y1="155.4545" x2="315.0000" y2="164.5455" />
    <line x1="315.0000" y1="164.5455" x2="312.0000" y2="164.5455" />
    <line x1="312.0000" y1="164.5455" x2="312.0000" y2="173.6364" />
    <line x1="312.0000" y1="173.6364" x2="315.0000" y2="173.6364" />
    <line x1="315.0000" y1="173.6364" x2="315.0000" y2="182.7273" />
    <line x1="315.0000" y1="182.7273" x2="312.0000" y2="182.7273" />
    <line x1="312.0000" y1="182.7273" x2="312.0000" y2="191.8182" />
    <line x1="312.0000" y1="191.8182" x2="315.0000" y2="191.8182" />
    <line x1="315.0000" y1="191.8182" x2="315.0000" y2="200.9091" />
    <line x1="315.0000" y1="200.9091" x2="312.0000" y2="200.9091" />
    <line x1="312.0000" y1="200.9091" x2="312.0000" y2="210.0000" />
    <line x1="312.0000" y1="210.0000" x2="315.0000" y2="210.0000" />
    <line x1="315.0000" y1="210.0000" x2="315.0000" y2="207.0000" />
    <line x1="315.0000" y1="207.0000" x2="305.9091" y2="207.0000" />
    <line x1="305.9091" y1="207.0000" x2="305.9091" y2="210.0000" />
    <line x1="305.9091" y1="210.0000" x2="296.8182" y2="210.0000" />
    <line x1="296.8182" y1="210.0000" x2="296.8182" y2="207.0000" />
    <line x1="296.8182" y1="207.0000" x2="287.7273" y2="207.0000" />
    <line x1="287.7273" y1="207.0000" x2="287.7273" y2="210.0000" />
    <line x1="287.7273" y1="210.0000" x2="278.6364" y2="210.0000" />
    <line x1="278.6364" y1="210.0000" x2="278.6364" y2="207.0000" />
    <line x1="278.6364" y1="207.0000" x2="269.5455" y2="207.0000" />
    <line x1="269.5455" y1="207.0000" x2="269.5455" y2="210.0000" />
    <line x1="269.5455" y1="210.0000" x2="260.4545" y2="210.0000" />
    <line x1="260.4545" y1="210.0000" x2="260.4545" y2="207.0000" />
    <line x1="260.4545" y1="207.0000" x2="251.3636" y2="207.0000" />
    <line x1="251.3636" y1="207.0000" x2="251.3636" y2="210.0000" />
    <line x1="251.3636" y1="210.0000" x2="242.2727" y2="210.0000" />
    <line x1="242.2727" y1="210.0000" x2="242.2727" y2="207.0000" />
    <line x1="242.2727" y1="207.0000" x2="233.1818" y2="207.0000" />
    <line x1="233.1818" y1="207.0000" x2="233.1818" y2="210.0000" />
    <line x1="233.1818" y1="210.0000" x2="224.0909" y2="210.0000" />
    <line x1="224.0909" y1="210.0000" x2="224.0909" y2="207.0000" />
    <line x1="224.0909" y1="207.0000" x2="215.0000" y2="207.0000" />
    <line x1="215.0000" y1="207.0000" x2="215.0000" y2="210.0000" />
    <line x1="215.0000" y1="210.0000" x2="218.0000" y2="210.0000" />
    <line x1="218.0000" y1="210.0000" x2="218.0000" y2="200.9091" />
    <line x1="218.0000" y1="200.9091" x2="215.0000" y2="200.9091" />
    <line x1="215.0000" y1="200.9091" x2="215.0000" y2="191.8182" />
    <line x1="215.0000" y1="191.8182" x2="218.0000" y2="191.8182" />
    <line x1="218.0000" y1="191.8182" x2="218.0000" y2="182.7273" />
    <line x1="218.0000" y1="182.7273" x2="215.0000" y2="182.7273" />
    <line x1="215.0000" y1="182.7273" x2="215.0000" y2="173.6364" />
    <line x1="215.0000" y1="173.6364" x2="218.0000" y2="173.6364" />
    <line x1="218.0000" y1="173.6364" x2="218.0000" y2="164.5455" />
    <line x1="218.0000" y1="164.5455" x2="215.0000" y2="164.5455" />
    <line x1="215.0000" y1="164.5455" x2="215.0000" y2="155.4545" />
    <line x1="215.0000" y1="155.4545" x2="218.0000" y2="155.4545" />
    <line x1="218.0000" y1="155.4545" x2="218.0000" y2="146.3636" />
    <line x1="218.0000" y1="146.3636" x2="215.0000" y2="146.3636" />
    <line x1="215.0000" y1="146.3636" x2="215.0000" y2="137.2727" />
    <line x1="215.0000" y1="137.2727" x2="218.0000" y2="137.2727" />
    <line x1="218.0000" y1="137.2727" x2="218.0000" y2="128.1818" />
    <line x1="218.0000" y1="128.1818" x2="215.0000" y2="128.1818" />
    <line x1="215.0000" y1="128.1818" x2="215.0000" y2="119.0909" />
    <line x1="215.0000" y1="119.0909" x2="218.0000" y2="119.0909" />
    <line x1="218.0000" y1="119.0909" x2="218.0000" y2="110.0000" />
    <line x1="218.0000" y1="110.0000" x2="215.0000" y2="110.0000" />
    <line x1="5.0000" y1="5.0000" x2="111.0000" y2="5.0000" />
    <line x1="111.0000" y1="5.0000" x2="108.0000" y2="5.0000" />
    <line x1="108.0000" y1="5.0000" x2="108.0000" y2="14.0909" />
    <line x1="108.0000" y1="14.0909" x2="111.0000" y2="14.0909" />
    <line x1="111.0000" y1="14.0909" x2="111.0000" y2="23.1818" />
    <line x1="111.0000" y1="23.1818" x2="108.0000" y2="23.1818" />
    <line x1="108.0000" y1="23.1818" x2="108.0000" y2="32.2727" />
    <line x1="108.0000" y1="32.2727" x2="111.0000" y2="32.2727" />
    <line x1="111.0000" y1="32.2727" x2="111.0000" y2="41.3636" />
    <line x1="111.0000" y1="41.3636" x2="108.0000" y2="41.3636" />
    <line x1="108.0000" y1="41.3636" x2="108.0000" y2="50.4545" />
    <line x1="108.0000" y1="50.4545" x2="111.0000" y2="50.4545" />
    <line x1="111.0000" y1="50.4545" x2="111.0000" y2="59.5455" />
    <line x1="111.0000" y1="59.5455" x2="108.0000" y2="59.5455" />
    <line x1="108.0000" y1="59.5455" x2="108.0000" y2="68.6364" />
    <line x1="108.0000" y1="68.6364" x2="111.0000" y2="68.6364" />
    <line x1="111.0000" y1="68.6364" x2="111.0000" y2="77.7273" />
    <line x1="111.0000" y1="77.7273" x2="108.0000" y2="77.7273" />
    <line x1="108.0000" y1="77.7273" x2="108.0000" y2="86.8182" />
    <line x1="108.0000" y1="86.8182" x2="111.0000" y2="86.8182" />
    <line x1="111.0000" y1="86.8182" x2="111.0000" y2="95.9091" />
    <line x1="111.0000" y1="95.9091" x2="108.0000" y2="95.9091" />
    <line x1="108.0000" y1="95.9091" x2="108.0000" y2="105.0000" />
    <line x1="108.0000" y1="105.0000" x2="111.0000" y2="105.0000" />
    <line x1="5.0000" y1="105.0000" x2="8.0000" y2="105.0000" />
    <line x1="8.0000" y1="105.0000" x2="8.0000" y2="105.0000" />
    <line x1="8.0000" y1="105.0000" x2="17.0909" y2="105.0000" />
    <line x1="17.0909" y1="105.0000" x2="17.0909" y2="108.0000" />
    <line x1="17.0909" y1="108.0000" x2="26.1818" y2="108.0000" />
    <line x1="26.1818" y1="108.0000" x2="26.1818" y2="105.0000" />
    <line x1="26.1818" y1="105.0000" x2="35.2727" y2="105.0000" />
    <line x1="35.2727" y1="105.0000" x2="35.2727" y2="108.0000" />
    <line x1="35.2727" y1="108.0000" x2="44.3636" y2="108.0000" />
    <line x1="44.3636" y1="108.0000" x2="44.3636" y2="105.0000" />
    <line x1="44.3636" y1="105.0000" x2="53.4545" y2="105.0000" />
    <line x1="53.4545" y1="105.0000" x2="53.4545" y2="108.0000" />
    <line x1="53.4545" y1="108.0000" x2="62.5455" y2="108.0000" />
    <line x1="62.5455" y1="108.0000" x2="62.5455" y2="105.0000" />
    <line x1="62.5455" y1="105.0000" x2="71.6364" y2="105.0000" />
    <line x1="71.6364" y1="105.0000" x2="71.6364" y2="108.0000" />
    <line x1="71.6364" y1="108.0000" x2="80.7273" y2="108.0000" />
    <line x1="80.7273" y1="108.0000" x2="80.7273" y2="105.0000" />
    <line x1="80.7273" y1="105.0000" x2="89.8182" y2="105.0000" />
    <line x1="89.8182" y1="105.0000" x2="89.8182" y2="108.0000" />
    <line x1="89.8182" y1="108.0000" x2="98.9091" y2="108.0000" />
    <line x1="98.9091" y1="108.0000" x2="98.9091" y2="105.0000" />
    <line x1="98.9091" y1="105.0000" x2="108.0000" y2="105.0000" />
    <line x1="108.0000" y1="105.0000" x2="108.0000" y2="105.0000" />
    <line x1="108.0000" y1="105.0000" x2="111.0000" y2="105.0000" />
    <line x1="5.0000" y1="105.0000" x2="8.0000" y2="105.0000" />
    <line x1="8.0000" y1="105.0000" x2="8.0000" y2="95.9091" />
    <line x1="8.0000" y1="95.9091" x2="5.0000" y2="95.9091" />
    <line x1="5.0000" y1="95.9091" x2="5.0000" y2="86.8182" />
    <line x1="5.0000" y1="86.8182" x2="8.0000" y2="86.8182" />
    <line x1="8.0000" y1="86.8182" x2="8.0000" y2="77.7273" />
    <line x1="8.0000" y1="77.7273" x2="5.0000" y2="77.7273" />
    <line x1="5.0000" y1="77.7273" x2="5.0000" y2="68.6364" />
    <line x1="5.0000" y1="68.6364" x2="8.0000" y2="68.6364" />
    <line x1="8.0000" y1="68.6364" x2="8.0000" y2="59.5455" />
    <line x1="8.0000" y1="59.5455" x2="5.0000" y2="59.5455" />
    <line x1="5.0000" y1="59.5455" x2="5.0000" y2="50.4545" />
    <line x1="5.0000" y1="50.4545" x2="8.0000" y2="50.4545" />
    <line x1="8.0000" y1="50.4545" x2="8.0000" y2="41.3636" />
    <line x1="8.0000" y1="41.3636" x2="5.0000" y2="41.3636" />
    <line x1="5.0000" y1="41.3636" x2="5.0000" y2="32.2727" />
    <line x1="5.0000" y1="32.2727" x2="8.0000" y2="32.2727" />
    <line x1="8.0000" y1="32.2727" x2="8.0000" y2="23.1818" />
    <line x1="8.0000" y1="23.1818" x2="5.0000" y2="23.1818" />
    <line x1="5.0000" y1="23.1818" x2="5.0000" y2="14.0909" />
    <line x1="5.0000" y1="14.0909" x2="8.0000" y2="14.0909" />
    <line x1="8.0000" y1="14.0909" x2="8.0000" y2="5.0000" />
    <line x1="8.0000" y1="5.0000" x2="5.0000" y2="5.0000" />
    <line x1="56.5000" y1="30.0000" x2="59.5000" y2="30.0000" />
    <line x1="59.5000" y1="30.0000" x2="59.5000" y2="80.0000" />
    <line x1="59.5000" y1="80.0000" x2="56.5000" y2="80.0000" />
    <line x1="56.5000" y1="80.0000" x2="56.5000" y2="30.0000" />
    <line x1="116.0000" y1="5.0000" x2="222.0000" y2="5.0000" />
    <line x1="222.0000" y1="5.0000" x2="219.0000" y2="5.0000" />
    <line x1="219.0000" y1="5.0000" x2="219.0000" y2="14.0909" />
    <line x1="219.0000" y1="14.0909" x2="222.0000" y2="14.0909" />
    <line x1="222.0000" y1="14.0909" x2="222.0000" y2="23.1818" />
    <line x1="222.0000" y1="23.1818" x2="219.0000" y2="23.1818" />
    <line x1="219.0000" y1="23.1818" x2="219.0000" y2="32.2727" />
    <line x1="219.0000" y1="32.2727" x2="222.0000" y2="32.2727" />
    <line x1="222.0000" y1="32.2727" x2="222.0000" y2="41.3636" />
    <line x1="222.0000" y1="41.3636" x2="219.0000" y2="41.3636" />
    <line x1="219.0000" y1="41.3636" x2="219.0000" y2="50.4545" />
    <line x1="219.0000" y1="50.4545" x2="222.0000" y2="50.4545" />
    <line x1="222.0000" y1="50.4545" x2="222.0000" y2="59.5455" />
    <line x1="222.0000" y1="59.5455" x2="219.0000" y2="59.5455" />
    <line x1="219.0000" y1="59.5455" x2="219.0000" y2="68.6364" />
    <line x1="219.0000" y1="68.6364" x2="222.0000" y2="68.6364" />
    <line x1="222.0000" y1="68.6364" x2="222.0000" y2="77.7273" />
    <line x1="222.0000" y1="77.7273" x2="219.0000" y2="77.7273" />
    <line x1="219.0000" y1="77.7273" x2="219.0000" y2="86.8182" />
    <line x1="219.0000" y1="86.8182" x2="222.0000" y2="86.8182" />
    <line x1="222.0000" y1="86.8182" x2="222.0000" y2="95.9091" />
    <line x1="222.0000" y1="95.9091" x2="219.0000" y2="95.9091" />
    <line x1="219.0000" y1="95.9091" x2="219.0000" y2="105.0000" />
    <line x1="219.0000" y1="105.0000" x2="222.0000" y2="105.0000" />
    <line x1="116.0000" y1="105.0000" x2="119.0000" y2="105.0000" />
    <line x1="119.0000" y1="105.0000" x2="119.0000" y2="105.0000" />
    <line x1="119.0000" y1="105.0000" x2="128.0909" y2="105.0000" />
    <line x1="128.0909" y1="105.0000" x2="128.0909" y2="108.0000" />
    <line x1="128.0909" y1="108.0000" x2="137.1818" y2="108.0000" />
    <line x1="137.1818" y1="108.0000" x2="137.1818" y2="105.0000" />
    <line x1="137.1818" y1="105.0000" x2="146.2727" y2="105.0000" />
    <line x1="146.2727" y1="105.0000" x2="146.2727" y2="108.0000" />
    <line x1="146.2727" y1="108.0000" x2="155.3636" y2="108.0000" />
    <line x1="155.3636" y1="108.0000" x2="155.3636" y2="105.0000" />
    <line x1="155.3636" y1="105.0000" x2="164.4545" y2="105.0000" />
    <line x1="164.4545" y1="105.0000" x2="164.4545" y2="108.0000" />
    <line x1="164.4545" y1="108.0000" x2="173.5455" y2="108.0000" />
    <line x1="173.5455" y1="108.0000" x2="173.5455" y2="105.0000" />
    <line x1="173.5455" y1="105.0000" x2="182.6364" y2="105.0000" />
    <line x1="182.6364" y1="105.0000" x2="182.6364" y2="108.0000" />
    <line x1="182.6364" y1="108.0000" x2="191.7273" y2="108.0000" />
    <line x1="191.7273" y1="108.0000" x2="191.7273" y2="105.0000" />
    <line x1="191.7273" y1="105.0000" x2="200.8182" y2="105.0000" />
    <line x1="200.8182" y1="105.0000" x2="200.8182" y2="108.0000" />
    <line x1="200.8182" y1="108.0000" x2="209.9091" y2="108.0000" />
    <line x1="209.9091" y1="108.0000" x2="209.9091" y2="105.0000" />
    <line x1="209.9091" y1="105.0000" x2="219.0000" y2="105.0000" />
    <line x1="219.0000" y1="105.0000" x2="219.0000" y2="105.0000" />
    <line x1="219.0000" y1="105.0000" x2="222.0000" y2="105.0000" />
    <line x1="116.0000" y1="105.0000" x2="119.0000" y2="105.0000" />
    <line x1="119.0000" y1="105.0000" x2="119.0000" y2="95.9091" />
    <line x1="119.0000" y1="95.9091" x2="116.0000" y2="95.9091" />
    <line x1="116.0000" y1="95.9091" x2="116.0000" y2="86.8182" />
    <line x1="116.0000" y1="86.8182" x2="119.0000" y2="86.8182" />
    <line x1="119.0000" y1="86.8182" x2="119.0000" y2="77.7273" />
    <line x1="119.0000" y1="77.7273" x2="116.0000" y2="77.7273" />
    <line x1="116.0000" y1="77.7273" x2="116.0000" y2="68.6364" />
    <line x1="116.0000" y1="68.6364" x2="119.0000" y2="68.6364" />
    <line x1="119.0000" y1="68.6364" x2="119.0000" y2="59.5455" />
    <line x1="119.0000" y1="59.5455" x2="116.0000" y2="59.5455" />
    <line x1="116.0000" y1="59.5455" x2="116.0000" y2="50.4545" />
    <line x1="116.0000" y1="50.4545" x2="119.0000" y2="50.4545" />
    <line x1="119.0000" y1="50.4545" x2="119.0000" y2="41.3636" />
    <line x1="119.0000" y1="41.3636" x2="116.0000" y2="41.3636" />
    <line x1="116.0000" y1="41.3636" x2="116.0000" y2="32.2727" />
    <line x1="116.0000" y1="32.2727" x2="119.0000" y2="32.2727" />
    <line x1="119.0000" y1="32.2727" x2="119.0000" y2="23.1818" />
    <line x1="119.0000" y1="23.1818" x2="116.0000" y2="23.1818" />
    <line x1="116.0000" y1="23.1818" x2="116.0000" y2="14.0909" />
    <line x1="116.0000" y1="14.0909" x2="119.0000" y2="14.0909" />
    <line x1="119.0000" y1="14.0909" x2="119.0000" y2="5.0000" />
    <line x1="119.0000" y1="5.0000" x2="116.0000" y2="5.0000" />
    <line x1="167.5000" y1="30.0000" x2="170.5000" y2="30.0000" />
    <line x1="170.5000" y1="30.0000" x2="170.5000" y2="80.0000" />
    <line x1="170.5000" y1="80.0000" x2="167.5000" y2="80.0000" />
    <line x1="167.5000" y1="80.0000" x2="167.5000" y2="30.0000" />
    <line x1="5.0000" y1="110.0000" x2="105.0000" y2="110.0000" />
    <line x1="105.0000" y1="110.0000" x2="105.0000" y2="110.0000" />
    <line x1="105.0000" y1="110.0000" x2="105.0000" y2="119.0909" />
    <line x1="105.0000" y1="119.0909" x2="102.0000" y2="119.0909" />
    <line x1="102.0000" y1="119.0909" x2="102.0000" y2="128.1818" />
    <line x1="102.0000" y1="128.1818" x2="105.0000" y2="128.1818" />
    <line x1="105.0000" y1="128.1818" x2="105.0000" y2="137.2727" />
    <line x1="105.0000" y1="137.2727" x2="102.0000" y2="137.2727" />
    <line x1="102.0000" y1="137.2727" x2="102.0000" y2="146.3636" />
    <line x1="102.0000" y1="146.3636" x2="105.0000" y2="146.3636" />
    <line x1="105.0000" y1="146.3636" x2="105.0000" y2="155.4545" />
    <line x1="105.0000" y1="155.4545" x2="102.0000" y2="155.4545" />
    <line x1="102.0000" y1="155.4545" x2="102.0000" y2="164.5455" />
    <line x1="102.0000" y1="164.5455" x2="105.0000" y2="164.5455" />
    <line x1="105.0000" y1="164.5455" x2="105.0000" y2="173.6364" />
    <line x1="105.0000" y1="173.6364" x2="102.0000" y2="173.6364" />
    <line x1="102.0000" y1="173.6364" x2="102.0000" y2="182.7273" />
    <line x1="102.0000" y1="182.7273" x2="105.0000" y2="182.7273" />
    <line x1="105.0000" y1="182.7273" x2="105.0000" y2="191.8182" />
    <line x1="105.0000" y1="191.8182" x2="102.0000" y2="191.8182" />
    <line x1="102.0000" y1="191.8182" x2="102.0000" y2="200.9091" />
    <line x1="102.0000" y1="200.9091" x2="105.0000" y2="200.9091" />
    <line x1="105.0000" y1="200.9091" x2="105.0000" y2="210.0000" />
    <line x1="105.0000" y1="210.0000" x2="105.0000" y2="210.0000" />
    <line x1="105.0000" y1="210.0000" x2="105.0000" y2="210.0000" />
    <line x1="105.0000" y1="210.0000" x2="95.9091" y2="210.0000" />
    <line x1="95.9091" y1="210.0000" x2="95.9091" y2="207.0000" />
    <line x1="95.9091" y1="207.0000" x2="86.8182" y2="207.0000" />
    <line x1="86.8182" y1="207.0000" x2="86.8182" y2="210.0000" />
    <line x1="86.8182" y1="210.0000" x2="77.7273" y2="210.0000" />
    <line x1="77.7273" y1="210.0000" x2="77.7273" y2="207.0000" />
    <line x1="77.7273" y1="207.0000" x2="68.6364" y2="207.0000" />
    <line x1="68.6364" y1="207.0000" x2="68.6364" y2="210.0000" />
    <line x1="68.6364" y1="210.0000" x2="59.5455" y2="210.0000" />
    <line x1="59.5455" y1="210.0000" x2="59.5455" y2="207.0000" />
    <line x1="59.5455" y1="207.0000" x2="50.4545" y2="207.0000" />
    <line x1="50.4545" y1="207.0000" x2="50.4545" y2="210.0000" />
    <line x1="50.4545" y1="210.0000" x2="41.3636" y2="210.0000" />
    <line x1="41.3636" y1="210.0000" x2="41.3636" y2="207.0000" />
    <line x1="41.3636" y1="207.0000" x2="32.2727" y2="207.0000" />
    <line x1="32.2727" y1="207.0000" x2="32.2727" y2="210.0000" />
    <line x1="32.2727" y1="210.0000" x2="23.1818" y2="210.0000" />
    <line x1="23.1818" y1="210.0000" x2="23.1818" y2="207.0000" />
    <line x1="23.1818" y1="207.0000" x2="14.0909" y2="207.0000" />
    <line x1="14.0909" y1="207.0000" x2="14.0909" y2="210.0000" />
    <line x1="14.0909" y1="210.0000" x2="5.0000" y2="210.0000" />
    <line x1="5.0000" y1="210.0000" x2="5.0000" y2="210.0000" />
    <line x1="5.0000" y1="210.0000" x2="5.0000" y2="210.0000" />
    <line x1="5.0000" y1="210.0000" x2="5.0000" y2="200.9091" />
    <line x1="5.0000" y1="200.9091" x2="8.0000" y2="200.9091" />
    <line x1="8.0000" y1="200.9091" x2="8.0000" y2="191.8182" />
    <line x1="8.0000" y1="191.8182" x2="5.0000" y2="191.8182" />
    <line x1="5.0000" y1="191.8182" x2="5.0000" y2="182.7273" />
    <line x1="5.0000" y1="182.7273" x2="8.0000" y2="182.7273" />
    <line x1="8.0000" y1="182.7273" x2="8.0000" y2="173.6364" />
    <line x1="8.0000" y1="173.6364" x2="5.0000" y2="173.6364" />
    <line x1="5.0000" y1="173.6364" x2="5.0000" y2="164.5455" />
    <line x1="5.0000" y1="164.5455" x2="8.0000" y2="164.5455" />
    <line x1="8.0000" y1="164.5455" x2="8.0000" y2="155.4545" />
    <line x1="8.0000" y1="155.4545" x2="5.0000" y2="155.4545" />
    <line x1="5.0000" y1="155.4545" x2="5.0000" y2="146.3636" />
    <line x1="5.0000" y1="146.3636" x2="8.0000" y2="146.3636" />
    <line x1="8.0000" y1="146.3636" x2="8.0000" y2="137.2727" />
    <line x1="8.0000" y1="137.2727" x2="5.0000" y2="137.2727" />
    <line x1="5.0000" y1="137.2727" x2="5.0000" y2="128.1818" />
    <line x1="5.0000" y1="128.1818" x2="8.0000" y2="128.1818" />
    <line x1="8.0000" y1="128.1818" x2="8.0000" y2="119.0909" />
    <line x1="8.0000" y1="119.0909" x2="5.0000" y2="119.0909" />
    <line x1="5.0000" y1="119.0909" x2="5.0000" y2="110.0000" />
    <line x1="5.0000" y1="110.0000" x2="5.0000" y2="110.0000" />
    <line x1="110.0000" y1="110.0000" x2="210.0000" y2="110.0000" />
    <line x1="210.0000" y1="110.0000" x2="210.0000" y2="110.0000" />
    <line x1="210.0000" y1="110.0000" x2="210.0000" y2="119.0909" />
    <line x1="210.0000" y1="119.0909" x2="207.0000" y2="119.0909" />
    <line x1="207.0000" y1="119.0909" x2="207.0000" y2="128.1818" />
    <line x1="207.0000" y1="128.1818" x2="210.0000" y2="128.1818" />
    <line x1="210.0000" y1="128.1818" x2="210.0000" y2="137.2727" />
    <line x1="210.0000" y1="137.2727" x2="207.0000" y2="137.2727" />
    <line x1="207.0000" y1="137.2727" x2="207.0000" y2="146.3636" />
    <line x1="207.0000" y1="146.3636" x2="210.0000" y2="146.3636" />
    <line x1="210.0000" y1="146.3636" x2="210.0000" y2="155.4545" />
    <line x1="210.0000" y1="155.4545" x2="207.0000" y2="155.4545" />
    <line x1="207.0000" y1="155.4545" x2="207.0000" y2="164.5455" />
    <line x1="207.0000" y1="164.5455" x2="210.0000" y2="164.5455" />
    <line x1="210.0000" y1="164.5455" x2="210.0000" y2="173.6364" />
    <line x1="210.0000" y1="173.6364" x2="207.0000" y2="173.6364" />
    <line x1="207.0000" y1="173.6364" x2="207.0000" y2="182.7273" />
    <line x1="207.0000" y1="182.7273" x2="210.0000" y2="182.7273" />
    <line x1="210.0000" y1="182.7273" x2="210.0000" y2="191.8182" />
    <line x1="210.0000" y1="191.8182" x2="207.0000" y2="191.8182" />
    <line x1="207.0000" y1="191.8182" x2="207.0000" y2="200.9091" />
    <line x1="207.0000" y1="200.9091" x2="210.0000" y2="200.9091" />
    <line x1="210.0000" y1="200.9091" x2="210.0000" y2="210.0000" />
    <line x1="210.0000" y1="210.0000" x2="210.0000" y2="210.0000" />
    <line x1="210.0000" y1="210.0000" x2="210.0000" y2="210.0000" />
    <line x1="210.0000" y1="210.0000" x2="200.9091" y2="210.0000" />
    <line x1="200.9091" y1="210.0000" x2="200.9091" y2="207.0000" />
    <line x1="200.9091" y1="207.0000" x2="191.8182" y2="207.0000" />
    <line x1="191.8182" y1="207.0000" x2="191.8182" y2="210.0000" />
    <line x1="191.8182" y1="210.0000" x2="182.7273" y2="210.0000" />
    <line x1="182.7273" y1="210.0000" x2="182.7273" y2="207.0000" />
    <line x1="182.7273" y1="207.0000" x2="173.6364" y2="207.0000" />
    <line x1="173.6364" y1="207.0000" x2="173.6364" y2="210.0000" />
    <line x1="173.6364" y1="210.0000" x2="164.5455" y2="210.0000" />
    <line x1="164.5455" y1="210.0000" x2="164.5455" y2="207.0000" />
    <line x1="164.5455" y1="207.0000" x2="155.4545" y2="207.0000" />
    <line x1="155.4545" y1="207.0000" x2="155.4545" y2="210.0000" />
    <line x1="155.4545" y1="210.0000" x2="146.3636" y2="210.0000" />
    <line x1="146.3636" y1="210.0000" x2="146.3636" y2="207.0000" />
    <line x1="146.3636" y1="207.0000" x2="137.2727" y2="207.0000" />
    <line x1="137.2727" y1="207.0000" x2="137.2727" y2="210.0000" />
    <line x1="137.2727" y1="210.0000" x2="128.1818" y2="210.0000" />
    <line x1="128.1818" y1="210.0000" x2="128.1818" y2="207.0000" />
    <line x1="128.1818" y1="207.0000" x2="119.0909" y2="207.0000" />
    <line x1="119.0909" y1="207.0000" x2="119.0909" y2="210.0000" />
    <line x1="119.0909" y1="210.0000" x2="110.0000" y2="210.0000" />
    <line x1="110.0000" y1="210.0000" x2="110.0000" y2="210.0000" />
    <line x1="110.0000" y1="210.0000" x2="110.0000" y2="210.0000" />
    <line x1="110.0000" y1="210.0000" x2="110.0000" y2="200.9091" />
    <line x1="110.0000" y1="200.9091" x2="113.0000" y2="200.9091" />
    <line x1="113.0000" y1="200.9091" x2="113.0000" y2="191.8182" />
    <line x1="113.0000" y1="191.8182" x2="110.0000" y2="191.8182" />
    <line x1="110.0000" y1="191.8182" x2="110.0000" y2="182.7273" />
    <line x1="110.0000" y1="182.7273" x2="113.0000" y2="182.7273" />
    <line x1="113.0000" y1="182.7273" x2="113.0000" y2="173.6364" />
    <line x1="113.0000" y1="173.6364" x2="110.0000" y2="173.6364" />
    <line x1="110.0000" y1="173.6364" x2="110.0000" y2="164.5455" />
    <line x1="110.0000" y1="164.5455" x2="113.0000" y2="164.5455" />
    <line x1="113.0000" y1="164.5455" x2="113.0000" y2="155.4545" />
    <line x1="113.0000" y1="155.4545" x2="110.0000" y2="155.4545" />
    <line x1="110.0000" y1="155.4545" x2="110.0000" y2="146.3636" />
    <line x1="110.0000" y1="146.3636" x2="113.0000" y2="146.3636" />
    <line x1="113.0000" y1="146.3636" x2="113.0000" y2="137.2727" />
    <line x1="113.0000" y1="137.2727" x2="110.0000" y2="137.2727" />
    <line x1="110.0000" y1="137.2727" x2="110.0000" y2="128.1818" />
    <line x1="110.0000" y1="128.1818" x2="113.0000" y2="128.1818" />
    <line x1="113.0000" y1="128.1818" x2="113.0000" y2="119.0909" />
    <line x1="113.0000" y1="119.0909" x2="110.0000" y2="119.0909" />
    <line x1="110.0000" y1="119.0909" x2="110.0000" y2="110.0000" />
    <line x1="110.0000" y1="110.0000" x2="110.0000" y2="110.0000" />
  </g>
  <g id="ENGRAVE" stroke="rgb(0,0,255)" stroke_width="0.2" fill="none">
    <text x="265.0000" y="160.0000" font-family="sans-serif" font-size="8" text-anchor="middle" dominant-baseline="middle">Digital Manufacturing</text>
  </g>
</svg>
