<?xml version="1.0" encoding="UTF-8" standalone="no"?>
<svg width="600mm" height="400mm" viewBox="0 0 600 400" xmlns="http://www.w3.org/2000/svg">
  <g id="CUT" stroke="rgb(255,0,0)" stroke_width="0.2" fill="none">
    <line x1="250.0000" y1="70.0000" x2="350.0000" y2="70.0000" />
    <line x1="250.0000" y1="70.0000" x2="250.0000" y2="102.5000" />
    <line x1="250.0000" y1="102.5000" x2="240.0000" y2="105.5000" />
    <line x1="240.0000" y1="105.5000" x2="240.0000" y2="114.5000" />
    <line x1="240.0000" y1="114.5000" x2="250.0000" y2="117.5000" />
    <line x1="250.0000" y1="117.5000" x2="250.0000" y2="150.0000" />
    <line x1="350.0000" y1="70.0000" x2="350.0000" y2="102.5000" />
    <line x1="350.0000" y1="102.5000" x2="360.0000" y2="105.5000" />
    <line x1="360.0000" y1="105.5000" x2="360.0000" y2="114.5000" />
    <line x1="360.0000" y1="114.5000" x2="350.0000" y2="117.5000" />
    <line x1="350.0000" y1="117.5000" x2="350.0000" y2="150.0000" />
    <line x1="250.0000" y1="330.0000" x2="350.0000" y2="330.0000" />
    <line x1="250.0000" y1="250.0000" x2="250.0000" y2="282.5000" />
    <line x1="250.0000" y1="282.5000" x2="240.0000" y2="285.5000" />
    <line x1="240.0000" y1="285.5000" x2="240.0000" y2="294.5000" />
    <line x1="240.0000" y1="294.5000" x2="250.0000" y2="297.5000" />
    <line x1="250.0000" y1="297.5000" x2="250.0000" y2="330.0000" />
    <line x1="350.0000" y1="250.0000" x2="350.0000" y2="282.5000" />
    <line x1="350.0000" y1="282.5000" x2="360.0000" y2="285.5000" />
    <line x1="360.0000" y1="285.5000" x2="360.0000" y2="294.5000" />
    <line x1="360.0000" y1="294.5000" x2="350.0000" y2="297.5000" />
    <line x1="350.0000" y1="297.5000" x2="350.0000" y2="330.0000" />
    <line x1="170.0000" y1="147.0000" x2="250.0000" y2="147.0000" />
    <line x1="170.0000" y1="147.0000" x2="170.0000" y2="253.0000" />
    <line x1="170.0000" y1="253.0000" x2="250.0000" y2="253.0000" />
    <line x1="250.0000" y1="147.0000" x2="250.0000" y2="150.0000" />
    <line x1="250.0000" y1="250.0000" x2="250.0000" y2="253.0000" />
    <line x1="350.0000" y1="147.0000" x2="430.0000" y2="147.0000" />
    <line x1="430.0000" y1="147.0000" x2="430.0000" y2="253.0000" />
    <line x1="430.0000" y1="253.0000" x2="350.0000" y2="253.0000" />
    <line x1="350.0000" y1="147.0000" x2="350.0000" y2="150.0000" />
    <line x1="350.0000" y1="250.0000" x2="350.0000" y2="253.0000" />
  </g>
  <g id="ENGRAVE" stroke="rgb(0,0,255)" stroke_width="0.2" fill="none">
    <line x1="250.0000" y1="150.0000" x2="350.0000" y2="150.0000" />
    <line x1="250.0000" y1="250.0000" x2="350.0000" y2="250.0000" />
    <line x1="250.0000" y1="102.5000" x2="250.0000" y2="117.5000" />
    <line x1="350.0000" y1="102.5000" x2="350.0000" y2="117.5000" />
    <line x1="250.0000" y1="282.5000" x2="250.0000" y2="297.5000" />
    <line x1="350.0000" y1="282.5000" x2="350.0000" y2="297.5000" />
    <line x1="250.0000" y1="150.0000" x2="250.0000" y2="250.0000" />
    <line x1="350.0000" y1="150.0000" x2="350.0000" y2="250.0000" />
    <text x="300.0000" y="200.0000" font-family="sans-serif" font-size="8" text-anchor="middle" dominant-baseline="middle">Ex1 Top</text>
    <text x="300.0000" y="290.0000" font-family="sans-serif" font-size="8" text-anchor="middle" dominant-baseline="middle">Front</text>
    <text x="300.0000" y="106.0000" font-family="sans-serif" font-size="6" text-anchor="middle" dominant-baseline="middle">Columbia</text>
    <text x="300.0000" y="114.0000" font-family="sans-serif" font-size="4" text-anchor="middle" dominant-baseline="middle">Digital Manufacturing</text>
  </g>
</svg>
