<?xml version="1.0" encoding="UTF-8" standalone="no"?>
<svg width="600mm" height="600mm" viewBox="0 0 600 600" xmlns="http://www.w3.org/2000/svg">
  <g id="CUT" stroke="rgb(255,0,0)" stroke_width="0.2" fill="none">
    <line x1="256.5000" y1="231.5000" x2="343.5000" y2="231.5000" />
    <line x1="256.5000" y1="231.5000" x2="256.5000" y2="236.5000" />
    <line x1="256.5000" y1="236.5000" x2="246.5000" y2="239.5000" />
    <line x1="246.5000" y1="239.5000" x2="246.5000" y2="248.5000" />
    <line x1="246.5000" y1="248.5000" x2="256.5000" y2="251.5000" />
    <line x1="256.5000" y1="251.5000" x2="256.5000" y2="256.5000" />
    <line x1="343.5000" y1="231.5000" x2="343.5000" y2="236.5000" />
    <line x1="343.5000" y1="236.5000" x2="353.5000" y2="239.5000" />
    <line x1="353.5000" y1="239.5000" x2="353.5000" y2="248.5000" />
    <line x1="353.5000" y1="248.5000" x2="343.5000" y2="251.5000" />
    <line x1="343.5000" y1="251.5000" x2="343.5000" y2="256.5000" />
    <line x1="256.5000" y1="368.5000" x2="343.5000" y2="368.5000" />
    <line x1="256.5000" y1="343.5000" x2="256.5000" y2="348.5000" />
    <line x1="256.5000" y1="348.5000" x2="246.5000" y2="351.5000" />
    <line x1="246.5000" y1="351.5000" x2="246.5000" y2="360.5000" />
    <line x1="246.5000" y1="360.5000" x2="256.5000" y2="363.5000" />
    <line x1="256.5000" y1="363.5000" x2="256.5000" y2="368.5000" />
    <line x1="343.5000" y1="343.5000" x2="343.5000" y2="348.5000" />
    <line x1="343.5000" y1="348.5000" x2="353.5000" y2="351.5000" />
    <line x1="353.5000" y1="351.5000" x2="353.5000" y2="360.5000" />
    <line x1="353.5000" y1="360.5000" x2="343.5000" y2="363.5000" />
    <line x1="343.5000" y1="363.5000" x2="343.5000" y2="368.5000" />
    <line x1="231.5000" y1="253.5000" x2="256.5000" y2="253.5000" />
    <line x1="231.5000" y1="253.5000" x2="231.5000" y2="346.5000" />
    <line x1="231.5000" y1="346.5000" x2="256.5000" y2="346.5000" />
    <line x1="256.5000" y1="253.5000" x2="256.5000" y2="256.5000" />
    <line x1="256.5000" y1="343.5000" x2="256.5000" y2="346.5000" />
    <line x1="343.5000" y1="253.5000" x2="368.5000" y2="253.5000" />
    <line x1="368.5000" y1="253.5000" x2="368.5000" y2="346.5000" />
    <line x1="368.5000" y1="346.5000" x2="343.5000" y2="346.5000" />
    <line x1="343.5000" y1="253.5000" x2="343.5000" y2="256.5000" />
    <line x1="343.5000" y1="343.5000" x2="343.5000" y2="346.5000" />
  </g>
  <g id="ENGRAVE" stroke="rgb(0,0,255)" stroke_width="0.2" fill="none">
    <line x1="256.5000" y1="256.5000" x2="343.5000" y2="256.5000" />
    <line x1="256.5000" y1="343.5000" x2="343.5000" y2="343.5000" />
    <line x1="256.5000" y1="236.5000" x2="256.5000" y2="251.5000" />
    <line x1="343.5000" y1="236.5000" x2="343.5000" y2="251.5000" />
    <line x1="256.5000" y1="348.5000" x2="256.5000" y2="363.5000" />
    <line x1="343.5000" y1="348.5000" x2="343.5000" y2="363.5000" />
    <line x1="256.5000" y1="256.5000" x2="256.5000" y2="343.5000" />
    <line x1="343.5000" y1="256.5000" x2="343.5000" y2="343.5000" />
    <text x="300.0000" y="300.0000" font-family="sans-serif" font-size="8" text-anchor="middle" dominant-baseline="middle">LID</text>
  </g>
</svg>
