<?xml version="1.0" encoding="UTF-8" standalone="no"?>
<svg width="600mm" height="600mm" viewBox="0 0 600 600" xmlns="http://www.w3.org/2000/svg">
  <g id="CUT" stroke="rgb(255,0,0)" stroke_width="0.2" fill="none">
    <line x1="175.0000" y1="303.0000" x2="225.0000" y2="303.0000" />
    <line x1="175.0000" y1="453.0000" x2="225.0000" y2="453.0000" />
    <line x1="175.0000" y1="303.0000" x2="175.0000" y2="453.0000" />
    <line x1="177.0000" y1="453.0000" x2="177.0000" y2="468.0000" />
    <line x1="177.0000" y1="468.0000" x2="223.0000" y2="468.0000" />
    <line x1="223.0000" y1="468.0000" x2="223.0000" y2="453.0000" />
    <line x1="375.0000" y1="303.0000" x2="425.0000" y2="303.0000" />
    <line x1="375.0000" y1="453.0000" x2="425.0000" y2="453.0000" />
    <line x1="425.0000" y1="303.0000" x2="425.0000" y2="453.0000" />
    <line x1="377.0000" y1="453.0000" x2="377.0000" y2="468.0000" />
    <line x1="377.0000" y1="468.0000" x2="423.0000" y2="468.0000" />
    <line x1="423.0000" y1="468.0000" x2="423.0000" y2="453.0000" />
    <line x1="225.0000" y1="253.0000" x2="225.0000" y2="303.0000" />
    <line x1="375.0000" y1="253.0000" x2="375.0000" y2="303.0000" />
    <line x1="225.0000" y1="253.0000" x2="221.5000" y2="253.0000" />
    <line x1="375.0000" y1="253.0000" x2="378.5000" y2="253.0000" />
    <line x1="174.5000" y1="110.0000" x2="221.5000" y2="100.0000" />
    <line x1="174.5000" y1="110.0000" x2="174.5000" y2="243.0000" />
    <line x1="174.5000" y1="243.0000" x2="221.5000" y2="253.0000" />
    <line x1="425.5000" y1="110.0000" x2="378.5000" y2="100.0000" />
    <line x1="425.5000" y1="110.0000" x2="425.5000" y2="243.0000" />
    <line x1="425.5000" y1="243.0000" x2="378.5000" y2="253.0000" />
    <line x1="221.5000" y1="100.0000" x2="225.5000" y2="100.0000" />
    <line x1="378.5000" y1="100.0000" x2="374.5000" y2="100.0000" />
    <line x1="225.5000" y1="100.0000" x2="225.5000" y2="50.0000" />
    <line x1="374.5000" y1="100.0000" x2="374.5000" y2="50.0000" />
    <line x1="225.5000" y1="50.0000" x2="374.5000" y2="50.0000" />
    <line x1="225.0000" y1="453.0000" x2="225.0000" y2="503.0000" />
    <line x1="375.0000" y1="453.0000" x2="375.0000" y2="503.0000" />
    <line x1="225.0000" y1="503.0000" x2="225.0000" y2="550.0000" />
    <line x1="375.0000" y1="503.0000" x2="375.0000" y2="550.0000" />
    <line x1="225.0000" y1="550.0000" x2="375.0000" y2="550.0000" />
    <line x1="255.0000" y1="450.0000" x2="270.0000" y2="450.0000" />
    <line x1="270.0000" y1="450.0000" x2="270.0000" y2="452.0000" />
    <line x1="270.0000" y1="452.0000" x2="255.0000" y2="452.0000" />
    <line x1="255.0000" y1="452.0000" x2="255.0000" y2="450.0000" />
    <line x1="330.0000" y1="450.0000" x2="345.0000" y2="450.0000" />
    <line x1="345.0000" y1="450.0000" x2="345.0000" y2="452.0000" />
    <line x1="345.0000" y1="452.0000" x2="330.0000" y2="452.0000" />
    <line x1="330.0000" y1="452.0000" x2="330.0000" y2="450.0000" />
    <line x1="255.0000" y1="550.0000" x2="270.0000" y2="555.0000" />
  </g>
  <g id="ENGRAVE" stroke="rgb(0,0,255)" stroke_width="0.2" fill="none">
    <line x1="225.0000" y1="303.0000" x2="375.0000" y2="303.0000" />
    <line x1="225.0000" y1="453.0000" x2="375.0000" y2="453.0000" />
    <line x1="225.0000" y1="303.0000" x2="225.0000" y2="453.0000" />
    <line x1="375.0000" y1="303.0000" x2="375.0000" y2="453.0000" />
    <line x1="177.0000" y1="453.0000" x2="223.0000" y2="453.0000" />
    <line x1="377.0000" y1="453.0000" x2="423.0000" y2="453.0000" />
    <line x1="225.0000" y1="253.0000" x2="375.0000" y2="253.0000" />
    <line x1="221.5000" y1="100.0000" x2="221.5000" y2="253.0000" />
    <line x1="378.5000" y1="100.0000" x2="378.5000" y2="253.0000" />
    <line x1="221.5000" y1="100.0000" x2="378.5000" y2="100.0000" />
    <line x1="225.0000" y1="503.0000" x2="375.0000" y2="503.0000" />
    <text x="300.0000" y="176.5000" font-family="sans-serif" font-size="8" text-anchor="middle" dominant-baseline="middle">Mailer Box</text>
  </g>
</svg>
