<?xml version="1.0" encoding="UTF-8" standalone="no"?>
<svg width="600mm" height="600mm" viewBox="0 0 600 600" xmlns="http://www.w3.org/2000/svg">
  <g id="CUT" stroke="rgb(255,0,0)" stroke_width="0.2" fill="none">
    <line x1="260.0000" y1="180.0000" x2="340.0000" y2="180.0000" />
    <line x1="260.0000" y1="180.0000" x2="260.0000" y2="212.5000" />
    <line x1="260.0000" y1="212.5000" x2="250.0000" y2="215.5000" />
    <line x1="250.0000" y1="215.5000" x2="250.0000" y2="224.5000" />
    <line x1="250.0000" y1="224.5000" x2="260.0000" y2="227.5000" />
    <line x1="260.0000" y1="227.5000" x2="260.0000" y2="260.0000" />
    <line x1="340.0000" y1="180.0000" x2="340.0000" y2="212.5000" />
    <line x1="340.0000" y1="212.5000" x2="350.0000" y2="215.5000" />
    <line x1="350.0000" y1="215.5000" x2="350.0000" y2="224.5000" />
    <line x1="350.0000" y1="224.5000" x2="340.0000" y2="227.5000" />
    <line x1="340.0000" y1="227.5000" x2="340.0000" y2="260.0000" />
    <line x1="260.0000" y1="420.0000" x2="340.0000" y2="420.0000" />
    <line x1="260.0000" y1="340.0000" x2="260.0000" y2="372.5000" />
    <line x1="260.0000" y1="372.5000" x2="250.0000" y2="375.5000" />
    <line x1="250.0000" y1="375.5000" x2="250.0000" y2="384.5000" />
    <line x1="250.0000" y1="384.5000" x2="260.0000" y2="387.5000" />
    <line x1="260.0000" y1="387.5000" x2="260.0000" y2="420.0000" />
    <line x1="340.0000" y1="340.0000" x2="340.0000" y2="372.5000" />
    <line x1="340.0000" y1="372.5000" x2="350.0000" y2="375.5000" />
    <line x1="350.0000" y1="375.5000" x2="350.0000" y2="384.5000" />
    <line x1="350.0000" y1="384.5000" x2="340.0000" y2="387.5000" />
    <line x1="340.0000" y1="387.5000" x2="340.0000" y2="420.0000" />
    <line x1="180.0000" y1="257.0000" x2="260.0000" y2="257.0000" />
    <line x1="180.0000" y1="257.0000" x2="180.0000" y2="343.0000" />
    <line x1="180.0000" y1="343.0000" x2="260.0000" y2="343.0000" />
    <line x1="260.0000" y1="257.0000" x2="260.0000" y2="260.0000" />
    <line x1="260.0000" y1="340.0000" x2="260.0000" y2="343.0000" />
    <line x1="340.0000" y1="257.0000" x2="420.0000" y2="257.0000" />
    <line x1="420.0000" y1="257.0000" x2="420.0000" y2="343.0000" />
    <line x1="420.0000" y1="343.0000" x2="340.0000" y2="343.0000" />
    <line x1="340.0000" y1="257.0000" x2="340.0000" y2="260.0000" />
    <line x1="340.0000" y1="340.0000" x2="340.0000" y2="343.0000" />
  </g>
  <g id="ENGRAVE" stroke="rgb(0,0,255)" stroke_width="0.2" fill="none">
    <line x1="260.0000" y1="260.0000" x2="340.0000" y2="260.0000" />
    <line x1="260.0000" y1="340.0000" x2="340.0000" y2="340.0000" />
    <line x1="260.0000" y1="212.5000" x2="260.0000" y2="227.5000" />
    <line x1="340.0000" y1="212.5000" x2="340.0000" y2="227.5000" />
    <line x1="260.0000" y1="372.5000" x2="260.0000" y2="387.5000" />
    <line x1="340.0000" y1="372.5000" x2="340.0000" y2="387.5000" />
    <line x1="260.0000" y1="260.0000" x2="260.0000" y2="340.0000" />
    <line x1="340.0000" y1="260.0000" x2="340.0000" y2="340.0000" />
    <text x="300.0000" y="300.0000" font-family="sans-serif" font-size="8" text-anchor="middle" dominant-baseline="middle">Parts Box</text>
    <text x="300.0000" y="380.0000" font-family="sans-serif" font-size="8" text-anchor="middle" dominant-baseline="middle">Front</text>
    <text x="300.0000" y="216.0000" font-family="sans-serif" font-size="6" text-anchor="middle" dominant-baseline="middle">Columbia</text>
    <text x="300.0000" y="224.0000" font-family="sans-serif" font-size="4" text-anchor="middle" dominant-baseline="middle">Digital Manufacturing</text>
  </g>
</svg>
