<?xml version="1.0" encoding="UTF-8" standalone="no"?>
<svg width="600mm" height="400mm" viewBox="0 0 600 400" xmlns="http://www.w3.org/2000/svg">
  <g id="CUT" stroke="rgb(255,0,0)" stroke_width="0.2" fill="none">
    <line x1="256.5000" y1="131.5000" x2="343.5000" y2="131.5000" />
    <line x1="256.5000" y1="131.5000" x2="256.5000" y2="136.5000" />
    <line x1="256.5000" y1="136.5000" x2="246.5000" y2="139.5000" />
    <line x1="246.5000" y1="139.5000" x2="246.5000" y2="148.5000" />
    <line x1="246.5000" y1="148.5000" x2="256.5000" y2="151.5000" />
    <line x1="256.5000" y1="151.5000" x2="256.5000" y2="156.5000" />
    <line x1="343.5000" y1="131.5000" x2="343.5000" y2="136.5000" />
    <line x1="343.5000" y1="136.5000" x2="353.5000" y2="139.5000" />
    <line x1="353.5000" y1="139.5000" x2="353.5000" y2="148.5000" />
    <line x1="353.5000" y1="148.5000" x2="343.5000" y2="151.5000" />
    <line x1="343.5000" y1="151.5000" x2="343.5000" y2="156.5000" />
    <line x1="256.5000" y1="268.5000" x2="343.5000" y2="268.5000" />
    <line x1="256.5000" y1="243.5000" x2="256.5000" y2="248.5000" />
    <line x1="256.5000" y1="248.5000" x2="246.5000" y2="251.5000" />
    <line x1="246.5000" y1="251.5000" x2="246.5000" y2="260.5000" />
    <line x1="246.5000" y1="260.5000" x2="256.5000" y2="263.5000" />
    <line x1="256.5000" y1="263.5000" x2="256.5000" y2="268.5000" />
    <line x1="343.5000" y1="243.5000" x2="343.5000" y2="248.5000" />
    <line x1="343.5000" y1="248.5000" x2="353.5000" y2="251.5000" />
    <line x1="353.5000" y1="251.5000" x2="353.5000" y2="260.5000" />
    <line x1="353.5000" y1="260.5000" x2="343.5000" y2="263.5000" />
    <line x1="343.5000" y1="263.5000" x2="343.5000" y2="268.5000" />
    <line x1="231.5000" y1="153.5000" x2="256.5000" y2="153.5000" />
    <line x1="231.5000" y1="153.5000" x2="231.5000" y2="246.5000" />
    <line x1="231.5000" y1="246.5000" x2="256.5000" y2="246.5000" />
    <line x1="256.5000" y1="153.5000" x2="256.5000" y2="156.5000" />
    <line x1="256.5000" y1="243.5000" x2="256.5000" y2="246.5000" />
    <line x1="343.5000" y1="153.5000" x2="368.5000" y2="153.5000" />
    <line x1="368.5000" y1="153.5000" x2="368.5000" y2="246.5000" />
    <line x1="368.5000" y1="246.5000" x2="343.5000" y2="246.5000" />
    <line x1="343.5000" y1="153.5000" x2="343.5000" y2="156.5000" />
    <line x1="343.5000" y1="243.5000" x2="343.5000" y2="246.5000" />
  </g>
  <g id="ENGRAVE" stroke="rgb(0,0,255)" stroke_width="0.2" fill="none">
    <line x1="256.5000" y1="156.5000" x2="343.5000" y2="156.5000" />
    <line x1="256.5000" y1="243.5000" x2="343.5000" y2="243.5000" />
    <line x1="256.5000" y1="136.5000" x2="256.5000" y2="151.5000" />
    <line x1="343.5000" y1="136.5000" x2="343.5000" y2="151.5000" />
    <line x1="256.5000" y1="248.5000" x2="256.5000" y2="263.5000" />
    <line x1="343.5000" y1="248.5000" x2="343.5000" y2="263.5000" />
    <line x1="256.5000" y1="156.5000" x2="256.5000" y2="243.5000" />
    <line x1="343.5000" y1="156.5000" x2="343.5000" y2="243.5000" />
    <text x="300.0000" y="200.0000" font-family="sans-serif" font-size="8" text-anchor="middle" dominant-baseline="middle">LID</text>
  </g>
</svg>
