<?xml version="1.0" encoding="UTF-8" standalone="no"?>
<svg width="600mm" height="600mm" viewBox="0 0 600 600" xmlns="http://www.w3.org/2000/svg">
  <g id="CUT" stroke="rgb(255,0,0)" stroke_width="0.2" fill="none">
    <line x1="250.0000" y1="170.0000" x2="350.0000" y2="170.0000" />
    <line x1="250.0000" y1="170.0000" x2="250.0000" y2="202.5000" />
    <line x1="250.0000" y1="202.5000" x2="240.0000" y2="205.5000" />
    <line x1="240.0000" y1="205.5000" x2="240.0000" y2="214.5000" />
    <line x1="240.0000" y1="214.5000" x2="250.0000" y2="217.5000" />
    <line x1="250.0000" y1="217.5000" x2="250.0000" y2="250.0000" />
    <line x1="350.0000" y1="170.0000" x2="350.0000" y2="202.5000" />
    <line x1="350.0000" y1="202.5000" x2="360.0000" y2="205.5000" />
    <line x1="360.0000" y1="205.5000" x2="360.0000" y2="214.5000" />
    <line x1="360.0000" y1="214.5000" x2="350.0000" y2="217.5000" />
    <line x1="350.0000" y1="217.5000" x2="350.0000" y2="250.0000" />
    <line x1="250.0000" y1="430.0000" x2="350.0000" y2="430.0000" />
    <line x1="250.0000" y1="350.0000" x2="250.0000" y2="382.5000" />
    <line x1="250.0000" y1="382.5000" x2="240.0000" y2="385.5000" />
    <line x1="240.0000" y1="385.5000" x2="240.0000" y2="394.5000" />
    <line x1="240.0000" y1="394.5000" x2="250.0000" y2="397.5000" />
    <line x1="250.0000" y1="397.5000" x2="250.0000" y2="430.0000" />
    <line x1="350.0000" y1="350.0000" x2="350.0000" y2="382.5000" />
    <line x1="350.0000" y1="382.5000" x2="360.0000" y2="385.5000" />
    <line x1="360.0000" y1="385.5000" x2="360.0000" y2="394.5000" />
    <line x1="360.0000" y1="394.5000" x2="350.0000" y2="397.5000" />
    <line x1="350.0000" y1="397.5000" x2="350.0000" y2="430.0000" />
    <line x1="170.0000" y1="247.0000" x2="250.0000" y2="247.0000" />
    <line x1="170.0000" y1="247.0000" x2="170.0000" y2="353.0000" />
    <line x1="170.0000" y1="353.0000" x2="250.0000" y2="353.0000" />
    <line x1="250.0000" y1="247.0000" x2="250.0000" y2="250.0000" />
    <line x1="250.0000" y1="350.0000" x2="250.0000" y2="353.0000" />
    <line x1="350.0000" y1="247.0000" x2="430.0000" y2="247.0000" />
    <line x1="430.0000" y1="247.0000" x2="430.0000" y2="353.0000" />
    <line x1="430.0000" y1="353.0000" x2="350.0000" y2="353.0000" />
    <line x1="350.0000" y1="247.0000" x2="350.0000" y2="250.0000" />
    <line x1="350.0000" y1="350.0000" x2="350.0000" y2="353.0000" />
  </g>
  <g id="ENGRAVE" stroke="rgb(0,0,255)" stroke_width="0.2" fill="none">
    <line x1="250.0000" y1="250.0000" x2="350.0000" y2="250.0000" />
    <line x1="250.0000" y1="350.0000" x2="350.0000" y2="350.0000" />
    <line x1="250.0000" y1="202.5000" x2="250.0000" y2="217.5000" />
    <line x1="350.0000" y1="202.5000" x2="350.0000" y2="217.5000" />
    <line x1="250.0000" y1="382.5000" x2="250.0000" y2="397.5000" />
    <line x1="350.0000" y1="382.5000" x2="350.0000" y2="397.5000" />
    <line x1="250.0000" y1="250.0000" x2="250.0000" y2="350.0000" />
    <line x1="350.0000" y1="250.0000" x2="350.0000" y2="350.0000" />
    <text x="300.0000" y="300.0000" font-family="sans-serif" font-size="8" text-anchor="middle" dominant-baseline="middle">Ex1 Top</text>
    <text x="300.0000" y="390.0000" font-family="sans-serif" font-size="8" text-anchor="middle" dominant-baseline="middle">Front</text>
    <text x="300.0000" y="206.0000" font-family="sans-serif" font-size="6" text-anchor="middle" dominant-baseline="middle">Columbia</text>
    <text x="300.0000" y="214.0000" font-family="sans-serif" font-size="4" text-anchor="middle" dominant-baseline="middle">Digital Manufacturing</text>
  </g>
</svg>
