<?xml version="1.0" encoding="UTF-8" standalone="no"?>
<svg width="600mm" height="400mm" viewBox="0 0 600 400" xmlns="http://www.w3.org/2000/svg">
  <g id="CUT" stroke="rgb(255,0,0)" stroke_width="0.2" fill="none">
    <line x1="250.0000" y1="70.0000" x2="350.0000" y2="70.0000" />
    <line x1="250.0000" y1="70.0000" x2="250.0000" y2="102.5000" />
    <line x1="250.0000" y1="102.5000" x2="240.0000" y2="105.5000" />
    <line x1="240.0000" y1="105.5000" x2="240.0000" y2="114.5000" />
    <line x1="240.0000" y1="114.5000" x2="250.0000" y2="117.5000" />
    <line x1="250.0000" y1="117.5000" x2="250.0000" y2="150.0000" />
    <line x1="350.0000" y1="70.0000" x2="350.0000" y2="102.5000" />
    <line x1="350.0000" y1="102.5000" x2="360.0000" y2="105.5000" />
    <line x1="360.0000" y1="105.5000" x2="360.0000" y2="114.5000" />
    <line x1="360.0000" y1="114.5000" x2="350.0000" y2="117.5000" />
    <line x1="350.0000" y1="117.5000" x2="350.0000" y2="150.0000" />
    <line x1="250.0000" y1="330.0000" x2="350.0000" y2="330.0000" />
    <line x1="250.0000" y1="250.0000" x2="250.0000" y2="282.5000" />
    <line x1="250.0000" y1="282.5000" x2="240.0000" y2="285.5000" />
    <line x1="240.0000" y1="285.5000" x2="240.0000" y2="294.5000" />
    <line x1="240.0000" y1="294.5000" x2="250.0000" y2="297.5000" />
    <line x1="250.0000" y1="297.5000" x2="250.0000" y2="330.0000" />
    <line x1="350.0000" y1="250.0000" x2="350.0000" y2="282.5000" />
    <line x1="350.0000" y1="282.5000" x2="360.0000" y2="285.5000" />
    <line x1="360.0000" y1="285.5000" x2="360.0000" y2="294.5000" />
    <line x1="360.0000" y1="294.5000" x2="350.0000" y2="297.5000" />
    <line x1="350.0000" y1="297.5000" x2="350.0000" y2="330.0000" />
    <line x1="170.0000" y1="147.0000" x2="250.0000" y2="147.0000" />
    <line x1="170.0000" y1="147.0000" x2="170.0000" y2="253.0000" />
    <line x1="170.0000" y1="253.0000" x2="250.0000" y2="253.0000" />
    <line x1="250.0000" y1="147.0000" x2="250.0000" y2="150.0000" />
    <line x1="250.0000" y1="250.0000" x2="250.0000" y2="253.0000" />
    <line x1="350.0000" y1="147.0000" x2="430.0000" y2="147.0000" />
    <line x1="430.0000" y1="147.0000" x2="430.0000" y2="253.0000" />
    <line x1="430.0000" y1="253.0000" x2="350.0000" y2="253.0000" />
    <line x1="350.0000" y1="147.0000" x2="350.0000" y2="150.0000" />
    <line x1="350.0000" y1="250.0000" x2="350.0000" y2="253.0000" />
  </g>
  <g id="ENGRAVE" stroke="rgb(0,0,255)" stroke_width="0.2" fill="none">
    <line x1="250.0000" y1="150.0000" x2="350.0000" y2="150.0000" />
    <line x1="250.0000" y1="250.0000" x2="350.0000" y2="250.0000" />
    <line x1="250.0000" y1="102.5000" x2="250.0000" y2="117.5000" />
    <line x1="350.0000" y1="102.5000" x2="350.0000" y2="117.5000" />
    <line x1="250.0000" y1="282.5000" x2="250.0000" y2="297.5000" />
    <line x1="350.0000" y1="282.5000" x2="350.0000" y2="297.5000" />
    <line x1="250.0000" y1="150.0000" x2="250.0000" y2="250.0000" />
    <line x1="350.0000" y1="150.0000" x2="350.0000" y2="250.0000" />
    <text x="300.0000" y="200.0000" font-family="sans-serif" font-size="8" text-anchor="middle" dominant-baseline="middle">Fractal Box</text>
    <text x="300.0000" y="290.0000" font-family="sans-serif" font-size="8" text-anchor="middle" dominant-baseline="middle">Front</text>
    <text x="300.0000" y="106.0000" font-family="sans-serif" font-size="6" text-anchor="middle" dominant-baseline="middle">Columbia</text>
    <text x="300.0000" y="114.0000" font-family="sans-serif" font-size="4" text-anchor="middle" dominant-baseline="middle">Digital Manufacturing</text>
    <polyline points="175.0000,230.3109 179.3750,230.3109 177.1875,226.5220 175.0000,230.3109" />
    <polyline points="179.3750,230.3109 183.7500,230.3109 181.5625,226.5220 179.3750,230.3109" />
    <polyline points="177.1875,226.5220 181.5625,226.5220 179.3750,222.7332 177.1875,226.5220" />
    <polyline points="183.7500,230.3109 188.1250,230.3109 185.9375,226.5220 183.7500,230.3109" />
    <polyline points="188.1250,230.3109 192.5000,230.3109 190.3125,226.5220 188.1250,230.3109" />
    <polyline points="185.9375,226.5220 190.3125,226.5220 188.1250,222.7332 185.9375,226.5220" />
    <polyline points="179.3750,222.7332 183.7500,222.7332 181.5625,218.9443 179.3750,222.7332" />
    <polyline points="183.7500,222.7332 188.1250,222.7332 185.9375,218.9443 183.7500,222.7332" />
    <polyline points="181.5625,218.9443 185.9375,218.9443 183.7500,215.1554 181.5625,218.9443" />
    <polyline points="192.5000,230.3109 196.8750,230.3109 194.6875,226.5220 192.5000,230.3109" />
    <polyline points="196.8750,230.3109 201.2500,230.3109 199.0625,226.5220 196.8750,230.3109" />
    <polyline points="194.6875,226.5220 199.0625,226.5220 196.8750,222.7332 194.6875,226.5220" />
    <polyline points="201.2500,230.3109 205.6250,230.3109 203.4375,226.5220 201.2500,230.3109" />
    <polyline points="205.6250,230.3109 210.0000,230.3109 207.8125,226.5220 205.6250,230.3109" />
    <polyline points="203.4375,226.5220 207.8125,226.5220 205.6250,222.7332 203.4375,226.5220" />
    <polyline points="196.8750,222.7332 201.2500,222.7332 199.0625,218.9443 196.8750,222.7332" />
    <polyline points="201.2500,222.7332 205.6250,222.7332 203.4375,218.9443 201.2500,222.7332" />
    <polyline points="199.0625,218.9443 203.4375,218.9443 201.2500,215.1554 199.0625,218.9443" />
    <polyline points="183.7500,215.1554 188.1250,215.1554 185.9375,211.3666 183.7500,215.1554" />
    <polyline points="188.1250,215.1554 192.5000,215.1554 190.3125,211.3666 188.1250,215.1554" />
    <polyline points="185.9375,211.3666 190.3125,211.3666 188.1250,207.5777 185.9375,211.3666" />
    <polyline points="192.5000,215.1554 196.8750,215.1554 194.6875,211.3666 192.5000,215.1554" />
    <polyline points="196.8750,215.1554 201.2500,215.1554 199.0625,211.3666 196.8750,215.1554" />
    <polyline points="194.6875,211.3666 199.0625,211.3666 196.8750,207.5777 194.6875,211.3666" />
    <polyline points="188.1250,207.5777 192.5000,207.5777 190.3125,203.7889 188.1250,207.5777" />
    <polyline points="192.5000,207.5777 196.8750,207.5777 194.6875,203.7889 192.5000,207.5777" />
    <polyline points="190.3125,203.7889 194.6875,203.7889 192.5000,200.0000 190.3125,203.7889" />
    <polyline points="210.0000,230.3109 214.3750,230.3109 212.1875,226.5220 210.0000,230.3109" />
    <polyline points="214.3750,230.3109 218.7500,230.3109 216.5625,226.5220 214.3750,230.3109" />
    <polyline points="212.1875,226.5220 216.5625,226.5220 214.3750,222.7332 212.1875,226.5220" />
    <polyline points="218.7500,230.3109 223.1250,230.3109 220.9375,226.5220 218.7500,230.3109" />
    <polyline points="223.1250,230.3109 227.5000,230.3109 225.3125,226.5220 223.1250,230.3109" />
    <polyline points="220.9375,226.5220 225.3125,226.5220 223.1250,222.7332 220.9375,226.5220" />
    <polyline points="214.3750,222.7332 218.7500,222.7332 216.5625,218.9443 214.3750,222.7332" />
    <polyline points="218.7500,222.7332 223.1250,222.7332 220.9375,218.9443 218.7500,222.7332" />
    <polyline points="216.5625,218.9443 220.9375,218.9443 218.7500,215.1554 216.5625,218.9443" />
    <polyline points="227.5000,230.3109 231.8750,230.3109 229.6875,226.5220 227.5000,230.3109" />
    <polyline points="231.8750,230.3109 236.2500,230.3109 234.0625,226.5220 231.8750,230.3109" />
    <polyline points="229.6875,226.5220 234.0625,226.5220 231.8750,222.7332 229.6875,226.5220" />
    <polyline points="236.2500,230.3109 240.6250,230.3109 238.4375,226.5220 236.2500,230.3109" />
    <polyline points="240.6250,230.3109 245.0000,230.3109 242.8125,226.5220 240.6250,230.3109" />
    <polyline points="238.4375,226.5220 242.8125,226.5220 240.6250,222.7332 238.4375,226.5220" />
    <polyline points="231.8750,222.7332 236.2500,222.7332 234.0625,218.9443 231.8750,222.7332" />
    <polyline points="236.2500,222.7332 240.6250,222.7332 238.4375,218.9443 236.2500,222.7332" />
    <polyline points="234.0625,218.9443 238.4375,218.9443 236.2500,215.1554 234.0625,218.9443" />
    <polyline points="218.7500,215.1554 223.1250,215.1554 220.9375,211.3666 218.7500,215.1554" />
    <polyline points="223.1250,215.1554 227.5000,215.1554 225.3125,211.3666 223.1250,215.1554" />
    <polyline points="220.9375,211.3666 225.3125,211.3666 223.1250,207.5777 220.9375,211.3666" />
    <polyline points="227.5000,215.1554 231.8750,215.1554 229.6875,211.3666 227.5000,215.1554" />
    <polyline points="231.8750,215.1554 236.2500,215.1554 234.0625,211.3666 231.8750,215.1554" />
    <polyline points="229.6875,211.3666 234.0625,211.3666 231.8750,207.5777 229.6875,211.3666" />
    <polyline points="223.1250,207.5777 227.5000,207.5777 225.3125,203.7889 223.1250,207.5777" />
    <polyline points="227.5000,207.5777 231.8750,207.5777 229.6875,203.7889 227.5000,207.5777" />
    <polyline points="225.3125,203.7889 229.6875,203.7889 227.5000,200.0000 225.3125,203.7889" />
    <polyline points="192.5000,200.0000 196.8750,200.0000 194.6875,196.2111 192.5000,200.0000" />
    <polyline points="196.8750,200.0000 201.2500,200.0000 199.0625,196.2111 196.8750,200.0000" />
    <polyline points="194.6875,196.2111 199.0625,196.2111 196.8750,192.4223 194.6875,196.2111" />
    <polyline points="201.2500,200.0000 205.6250,200.0000 203.4375,196.2111 201.2500,200.0000" />
    <polyline points="205.6250,200.0000 210.0000,200.0000 207.8125,196.2111 205.6250,200.0000" />
    <polyline points="203.4375,196.2111 207.8125,196.2111 205.6250,192.4223 203.4375,196.2111" />
    <polyline points="196.8750,192.4223 201.2500,192.4223 199.0625,188.6334 196.8750,192.4223" />
    <polyline points="201.2500,192.4223 205.6250,192.4223 203.4375,188.6334 201.2500,192.4223" />
    <polyline points="199.0625,188.6334 203.4375,188.6334 201.2500,184.8446 199.0625,188.6334" />
    <polyline points="210.0000,200.0000 214.3750,200.0000 212.1875,196.2111 210.0000,200.0000" />
    <polyline points="214.3750,200.0000 218.7500,200.0000 216.5625,196.2111 214.3750,200.0000" />
    <polyline points="212.1875,196.2111 216.5625,196.2111 214.3750,192.4223 212.1875,196.2111" />
    <polyline points="218.7500,200.0000 223.1250,200.0000 220.9375,196.2111 218.7500,200.0000" />
    <polyline points="223.1250,200.0000 227.5000,200.0000 225.3125,196.2111 223.1250,200.0000" />
    <polyline points="220.9375,196.2111 225.3125,196.2111 223.1250,192.4223 220.9375,196.2111" />
    <polyline points="214.3750,192.4223 218.7500,192.4223 216.5625,188.6334 214.3750,192.4223" />
    <polyline points="218.7500,192.4223 223.1250,192.4223 220.9375,188.6334 218.7500,192.4223" />
    <polyline points="216.5625,188.6334 220.9375,188.6334 218.7500,184.8446 216.5625,188.6334" />
    <polyline points="201.2500,184.8446 205.6250,184.8446 203.4375,181.0557 201.2500,184.8446" />
    <polyline points="205.6250,184.8446 210.0000,184.8446 207.8125,181.0557 205.6250,184.8446" />
    <polyline points="203.4375,181.0557 207.8125,181.0557 205.6250,177.2668 203.4375,181.0557" />
    <polyline points="210.0000,184.8446 214.3750,184.8446 212.1875,181.0557 210.0000,184.8446" />
    <polyline points="214.3750,184.8446 218.7500,184.8446 216.5625,181.0557 214.3750,184.8446" />
    <polyline points="212.1875,181.0557 216.5625,181.0557 214.3750,177.2668 212.1875,181.0557" />
    <polyline points="205.6250,177.2668 210.0000,177.2668 207.8125,173.4780 205.6250,177.2668" />
    <polyline points="210.0000,177.2668 214.3750,177.2668 212.1875,173.4780 210.0000,177.2668" />
    <polyline points="207.8125,173.4780 212.1875,173.4780 210.0000,169.6891 207.8125,173.4780" />
  </g>
</svg>
