<?xml version="1.0" encoding="UTF-8" standalone="no"?>
<svg width="600mm" height="400mm" viewBox="0 0 600 400" xmlns="http://www.w3.org/2000/svg">
  <g id="CUT" stroke="rgb(255,0,0)" stroke_width="0.2" fill="none">
    <line x1="260.0000" y1="80.0000" x2="340.0000" y2="80.0000" />
    <line x1="260.0000" y1="80.0000" x2="260.0000" y2="112.5000" />
    <line x1="260.0000" y1="112.5000" x2="250.0000" y2="115.5000" />
    <line x1="250.0000" y1="115.5000" x2="250.0000" y2="124.5000" />
    <line x1="250.0000" y1="124.5000" x2="260.0000" y2="127.5000" />
    <line x1="260.0000" y1="127.5000" x2="260.0000" y2="160.0000" />
    <line x1="340.0000" y1="80.0000" x2="340.0000" y2="112.5000" />
    <line x1="340.0000" y1="112.5000" x2="350.0000" y2="115.5000" />
    <line x1="350.0000" y1="115.5000" x2="350.0000" y2="124.5000" />
    <line x1="350.0000" y1="124.5000" x2="340.0000" y2="127.5000" />
    <line x1="340.0000" y1="127.5000" x2="340.0000" y2="160.0000" />
    <line x1="260.0000" y1="320.0000" x2="340.0000" y2="320.0000" />
    <line x1="260.0000" y1="240.0000" x2="260.0000" y2="272.5000" />
    <line x1="260.0000" y1="272.5000" x2="250.0000" y2="275.5000" />
    <line x1="250.0000" y1="275.5000" x2="250.0000" y2="284.5000" />
    <line x1="250.0000" y1="284.5000" x2="260.0000" y2="287.5000" />
    <line x1="260.0000" y1="287.5000" x2="260.0000" y2="320.0000" />
    <line x1="340.0000" y1="240.0000" x2="340.0000" y2="272.5000" />
    <line x1="340.0000" y1="272.5000" x2="350.0000" y2="275.5000" />
    <line x1="350.0000" y1="275.5000" x2="350.0000" y2="284.5000" />
    <line x1="350.0000" y1="284.5000" x2="340.0000" y2="287.5000" />
    <line x1="340.0000" y1="287.5000" x2="340.0000" y2="320.0000" />
    <line x1="180.0000" y1="157.0000" x2="260.0000" y2="157.0000" />
    <line x1="180.0000" y1="157.0000" x2="180.0000" y2="243.0000" />
    <line x1="180.0000" y1="243.0000" x2="260.0000" y2="243.0000" />
    <line x1="260.0000" y1="157.0000" x2="260.0000" y2="160.0000" />
    <line x1="260.0000" y1="240.0000" x2="260.0000" y2="243.0000" />
    <line x1="340.0000" y1="157.0000" x2="420.0000" y2="157.0000" />
    <line x1="420.0000" y1="157.0000" x2="420.0000" y2="243.0000" />
    <line x1="420.0000" y1="243.0000" x2="340.0000" y2="243.0000" />
    <line x1="340.0000" y1="157.0000" x2="340.0000" y2="160.0000" />
    <line x1="340.0000" y1="240.0000" x2="340.0000" y2="243.0000" />
  </g>
  <g id="ENGRAVE" stroke="rgb(0,0,255)" stroke_width="0.2" fill="none">
    <line x1="260.0000" y1="160.0000" x2="340.0000" y2="160.0000" />
    <line x1="260.0000" y1="240.0000" x2="340.0000" y2="240.0000" />
    <line x1="260.0000" y1="112.5000" x2="260.0000" y2="127.5000" />
    <line x1="340.0000" y1="112.5000" x2="340.0000" y2="127.5000" />
    <line x1="260.0000" y1="272.5000" x2="260.0000" y2="287.5000" />
    <line x1="340.0000" y1="272.5000" x2="340.0000" y2="287.5000" />
    <line x1="260.0000" y1="160.0000" x2="260.0000" y2="240.0000" />
    <line x1="340.0000" y1="160.0000" x2="340.0000" y2="240.0000" />
    <text x="300.0000" y="200.0000" font-family="sans-serif" font-size="8" text-anchor="middle" dominant-baseline="middle">Parts Box</text>
    <text x="300.0000" y="280.0000" font-family="sans-serif" font-size="8" text-anchor="middle" dominant-baseline="middle">Front</text>
    <text x="300.0000" y="116.0000" font-family="sans-serif" font-size="6" text-anchor="middle" dominant-baseline="middle">Columbia</text>
    <text x="300.0000" y="124.0000" font-family="sans-serif" font-size="4" text-anchor="middle" dominant-baseline="middle">Digital Manufacturing</text>
  </g>
</svg>
