<?xml version="1.0" encoding="UTF-8" standalone="no"?>
<svg width="600mm" height="600mm" viewBox="0 0 600 600" xmlns="http://www.w3.org/2000/svg">
  <g id="CUT" stroke="rgb(255,0,0)" stroke_width="0.2" fill="none">
    <line x1="227.0000" y1="252.5000" x2="231.0000" y2="252.5000" />
    <line x1="231.0000" y1="252.5000" x2="231.0000" y2="272.5000" />
    <line x1="231.0000" y1="272.5000" x2="227.0000" y2="272.5000" />
    <line x1="227.0000" y1="272.5000" x2="227.0000" y2="252.5000" />
    <line x1="227.0000" y1="327.5000" x2="231.0000" y2="327.5000" />
    <line x1="231.0000" y1="327.5000" x2="231.0000" y2="347.5000" />
    <line x1="231.0000" y1="347.5000" x2="227.0000" y2="347.5000" />
    <line x1="227.0000" y1="347.5000" x2="227.0000" y2="327.5000" />
    <line x1="369.0000" y1="252.5000" x2="373.0000" y2="252.5000" />
    <line x1="373.0000" y1="252.5000" x2="373.0000" y2="272.5000" />
    <line x1="373.0000" y1="272.5000" x2="369.0000" y2="272.5000" />
    <line x1="369.0000" y1="272.5000" x2="369.0000" y2="252.5000" />
    <line x1="369.0000" y1="327.5000" x2="373.0000" y2="327.5000" />
    <line x1="373.0000" y1="327.5000" x2="373.0000" y2="347.5000" />
    <line x1="373.0000" y1="347.5000" x2="369.0000" y2="347.5000" />
    <line x1="369.0000" y1="347.5000" x2="369.0000" y2="327.5000" />
    <line x1="181.0000" y1="225.0000" x2="225.0000" y2="225.0000" />
    <line x1="181.0000" y1="225.0000" x2="181.0000" y2="175.0000" />
    <line x1="181.0000" y1="175.0000" x2="225.0000" y2="175.0000" />
    <line x1="375.0000" y1="225.0000" x2="419.0000" y2="225.0000" />
    <line x1="419.0000" y1="225.0000" x2="419.0000" y2="175.0000" />
    <line x1="419.0000" y1="175.0000" x2="375.0000" y2="175.0000" />
    <line x1="225.0000" y1="175.0000" x2="375.0000" y2="175.0000" />
    <line x1="181.0000" y1="375.0000" x2="225.0000" y2="375.0000" />
    <line x1="181.0000" y1="375.0000" x2="181.0000" y2="425.0000" />
    <line x1="181.0000" y1="425.0000" x2="225.0000" y2="425.0000" />
    <line x1="375.0000" y1="375.0000" x2="419.0000" y2="375.0000" />
    <line x1="419.0000" y1="375.0000" x2="419.0000" y2="425.0000" />
    <line x1="419.0000" y1="425.0000" x2="375.0000" y2="425.0000" />
    <line x1="225.0000" y1="425.0000" x2="375.0000" y2="425.0000" />
    <line x1="225.0000" y1="225.0000" x2="175.0000" y2="225.0000" />
    <line x1="225.0000" y1="375.0000" x2="175.0000" y2="375.0000" />
    <line x1="175.0000" y1="225.0000" x2="128.0000" y2="225.0000" />
    <line x1="175.0000" y1="375.0000" x2="128.0000" y2="375.0000" />
    <line x1="128.0000" y1="225.0000" x2="128.0000" y2="253.5000" />
    <line x1="128.0000" y1="253.5000" x2="124.0000" y2="253.5000" />
    <line x1="124.0000" y1="253.5000" x2="124.0000" y2="271.5000" />
    <line x1="124.0000" y1="271.5000" x2="128.0000" y2="271.5000" />
    <line x1="128.0000" y1="271.5000" x2="128.0000" y2="328.5000" />
    <line x1="128.0000" y1="328.5000" x2="124.0000" y2="328.5000" />
    <line x1="124.0000" y1="328.5000" x2="124.0000" y2="346.5000" />
    <line x1="124.0000" y1="346.5000" x2="128.0000" y2="346.5000" />
    <line x1="128.0000" y1="346.5000" x2="128.0000" y2="375.0000" />
    <line x1="375.0000" y1="225.0000" x2="425.0000" y2="225.0000" />
    <line x1="375.0000" y1="375.0000" x2="425.0000" y2="375.0000" />
    <line x1="425.0000" y1="225.0000" x2="472.0000" y2="225.0000" />
    <line x1="425.0000" y1="375.0000" x2="472.0000" y2="375.0000" />
    <line x1="472.0000" y1="225.0000" x2="472.0000" y2="253.5000" />
    <line x1="472.0000" y1="253.5000" x2="476.0000" y2="253.5000" />
    <line x1="476.0000" y1="253.5000" x2="476.0000" y2="271.5000" />
    <line x1="476.0000" y1="271.5000" x2="472.0000" y2="271.5000" />
    <line x1="472.0000" y1="271.5000" x2="472.0000" y2="328.5000" />
    <line x1="472.0000" y1="328.5000" x2="476.0000" y2="328.5000" />
    <line x1="476.0000" y1="328.5000" x2="476.0000" y2="346.5000" />
    <line x1="476.0000" y1="346.5000" x2="472.0000" y2="346.5000" />
    <line x1="472.0000" y1="346.5000" x2="472.0000" y2="375.0000" />
  </g>
  <g id="ENGRAVE" stroke="rgb(0,0,255)" stroke_width="0.2" fill="none">
    <line x1="225.0000" y1="225.0000" x2="375.0000" y2="225.0000" />
    <line x1="225.0000" y1="375.0000" x2="375.0000" y2="375.0000" />
    <line x1="225.0000" y1="225.0000" x2="225.0000" y2="375.0000" />
    <line x1="375.0000" y1="225.0000" x2="375.0000" y2="375.0000" />
    <line x1="225.0000" y1="225.0000" x2="225.0000" y2="175.0000" />
    <line x1="375.0000" y1="225.0000" x2="375.0000" y2="175.0000" />
    <line x1="225.0000" y1="375.0000" x2="225.0000" y2="425.0000" />
    <line x1="375.0000" y1="375.0000" x2="375.0000" y2="425.0000" />
    <line x1="175.0000" y1="225.0000" x2="175.0000" y2="375.0000" />
    <line x1="425.0000" y1="225.0000" x2="425.0000" y2="375.0000" />
  </g>
</svg>
