<?xml version="1.0" encoding="UTF-8"?><svg id="Layer_1" xmlns="http://www.w3.org/2000/svg" viewBox="0 0 1375.12 718.3"><defs><style>.cls-1{fill:#002d74;}</style></defs><g><path class="cls-1" d="M326.56,450.69c-14.29-12.81-17.82-29.6-17.82-43.59,0-9.86,3.39-27.09,16.49-40.2,8.83-8.83,22.24-15.75,44.91-15.75,5.89,0,14.14,.44,21.35,1.77,5.59,1.03,10.16,1.47,15.61,2.21,1.03,.15,1.33,.74,1.33,1.62,0,1.18-.44,2.95-.74,8.25-.3,4.86-.3,12.96-.44,15.17-.15,2.21-.44,3.1-1.33,3.1-1.03,0-1.18-1.03-1.18-3.1,0-5.74-2.36-11.78-6.18-15.02-5.15-4.42-16.49-8.4-29.45-8.4-19.58,0-28.71,5.74-33.87,10.75-10.75,10.31-13.25,23.41-13.25,38.43,0,28.13,21.65,53.89,53.15,53.89,11.04,0,19.73-1.32,25.62-7.36,3.09-3.24,5.01-9.72,5.45-12.37,.3-1.62,.59-2.21,1.47-2.21,.74,0,1.03,1.03,1.03,2.21,0,1.03-1.77,13.84-3.24,18.84-.88,2.8-1.18,3.09-3.83,4.27-5.89,2.36-17.08,3.38-26.5,3.38-22.09,0-36.96-5.45-48.59-15.9"/><path class="cls-1" d="M425.96,416.97c0-19.58,15.17-48.89,51.54-48.89,29.16,0,51.39,17.37,51.39,46.97s-20.76,51.1-52.13,51.1c-36.07,0-50.8-26.8-50.8-49.18m89.09,1.77c0-29.6-18.26-46.09-38.43-46.09s-36.96,12.66-36.96,40.49,16.05,48,40.79,48c9.87,0,34.61-5,34.61-42.41"/><path class="cls-1" d="M562.17,428.46c0,16.93,.59,25.47,3.09,27.83,2.36,2.06,5.3,2.94,15.46,2.94,6.48,0,12.37,0,15.61-4.12,1.47-2.21,2.51-5.16,2.8-7.36,.15-1.18,.44-1.77,1.18-1.77,.59,0,.88,.44,.88,1.92s-.88,9.86-1.77,13.25c-.88,2.95-.74,3.68-7.8,3.68-10.01,0-21.06-.74-35.79-.74-4.86,0-7.8,.44-12.96,.44-1.47,0-2.36-.3-2.36-1.18,0-.44,.44-.89,1.62-.89s2.36,0,3.53-.3c2.5-.44,3.39-3.39,3.83-6.92,.89-5.59,.59-15.76,.59-27.09v-22.09c0-19.44,0-22.68-.3-26.65-.3-4.13-.89-6.77-5.89-7.36-.88-.15-2.5-.15-3.68-.15-1.03,0-1.62-.44-1.62-1.03,0-.74,.73-1.03,2.21-1.03,6.18,0,15.02,.44,15.31,.44,2.06,0,11.05-.44,15.17-.44,1.48,0,1.92,.44,1.92,1.03s-.74,1.03-1.62,1.03c-1.03,0-2.51,.15-3.98,.29-4.12,.59-5.01,2.95-5.3,7.22-.3,3.97-.15,7.22-.15,26.65v22.38Z"/><path class="cls-1" d="M631.24,423.6c0,17.97,3.39,25.62,8.98,30.63,6.33,5.59,13.4,6.77,19.44,6.77,7.66,0,14.58-2.06,20.17-8.54,5.89-6.77,7.22-17.96,7.22-30.77v-15.61c0-19.29,0-22.68-.3-26.65-.29-4.27-.74-6.48-5.44-7.22-1.03-.15-2.8-.29-4.13-.29-.88,0-1.47-.44-1.47-.88,0-.89,.74-1.18,2.06-1.18,6.33,0,13.69,.44,14.28,.44,.74,0,7.07-.44,11.19-.44,1.48,0,2.06,.3,2.06,1.03,0,.59-.59,1.03-1.47,1.03s-1.18,0-2.65,.15c-4.13,.44-4.71,3.09-5.01,7.36-.15,3.97-.15,7.36-.15,26.65v13.1c0,13.25-1.47,29.16-11.92,38.14-9.57,8.1-19,8.83-26.95,8.83-4.12,0-17.96,0-27.54-8.83-6.33-5.89-10.89-14.73-10.89-32.98v-18.26c0-19.43,0-22.82-.44-26.8-.15-3.98-.88-6.48-5.45-7.07-.89-.15-2.66-.29-3.83-.29-1.03,0-1.62-.44-1.62-.88,0-.89,.59-1.18,2.21-1.18,6.33,0,14.28,.44,15.31,.44,1.18,0,9.87-.44,13.84-.44,1.62,0,2.06,.3,2.06,1.03s-1.03,1.03-1.77,1.03c-.89,0-2.06,.15-3.24,.29-3.53,.44-4.12,2.95-4.41,7.07-.15,3.98-.15,7.36-.15,26.8v17.52Z"/><path class="cls-1" d="M822.23,448.33c.44,3.53,1.33,11.78,7.07,13.1,2.5,.59,5.45,.89,7.51,1.03,.59,0,1.92,.15,1.92,.89s-.59,1.18-2.21,1.18c-2.65,0-18.56-.59-23.27-.89-3.24-.29-4.42-.59-4.42-1.32,0-.44,.59-1.03,1.33-1.33,.74-.3,1.18-2.06,.88-4.12l-6.48-63.03-31.22,63.32c-2.8,5.74-3.24,7.07-4.56,7.07-.89,0-1.62-1.33-4.42-6.33-2.36-4.27-14.14-27.83-15.02-29.16-.88-1.77-15.31-30.33-16.49-33.42l-5.45,56.69c-.15,2.06-.15,3.39-.15,5.59,0,1.62,.74,3.83,3.68,4.42,1.62,.3,2.65,.3,4.12,.44,1.18,.15,1.47,.59,1.47,.89,0,1.03-.89,1.18-2.5,1.18-4.71,0-11.04-.44-12.22-.44-1.47,0-7.66,.44-11.34,.44-1.33,0-2.21-.15-2.21-1.18,0-.3,.59-.89,1.91-.89,1.03,0,1.18,0,2.8-.15,3.53-.3,4.86-3.83,5.59-9.72l9.86-80.84c.3-2.5,.89-3.68,1.62-3.68s1.18,.44,2.21,2.35l39.46,76.43,37.55-76.28c.74-1.62,1.33-2.5,2.21-2.5s1.32,1.33,1.47,3.68l9.28,76.57Z"/><path class="cls-1" d="M857.14,406.08c0-19.29,0-22.97-.3-26.95-.29-3.97-1.32-6.04-5.74-6.92-1.18-.15-3.24-.3-3.54-.3-1.32,0-1.91-.44-1.91-1.03,0-.74,.89-1.03,2.21-1.03,6.18,0,15.02,.44,15.31,.44,3.53,0,8.39-.44,14.14-.44,22.09,0,26.5,12.22,26.5,18.55,0,10.9-6.18,17.82-12.37,22.68,9.87,2.95,22.53,11.93,22.53,26.36s-11.04,27.39-33.42,27.39c-2.36,0-5.3-.3-9.13-.3-4.12-.3-7.66-.44-8.25-.44-4.56,0-8.39,.44-13.25,.44-1.32,0-2.06-.3-2.06-.89,0-.44,.15-1.18,2.06-1.18,1.03,0,1.48,0,2.65-.3,2.51-.44,3.39-3.53,3.83-7.07,.74-5.45,.74-15.46,.74-26.95v-22.09Zm11.48,2.65c0,1.03,.3,1.18,.74,1.47,.89,.15,2.5,.44,7.36,.44,7.51,0,9.72-.44,12.52-3.54,2.36-2.79,3.83-6.92,3.83-11.78,0-10.16-4.56-21.5-17.08-21.5-1.18,0-4.27,.3-5.59,.74-1.33,.3-1.77,.59-1.77,1.33v32.83Zm0,12.66c0,9.28,0,25.47,.15,26.65,.44,6.48,.3,8.39,4.71,10.3,3.53,1.77,9.43,1.92,10.9,1.92,6.33,0,17.37-3.09,17.37-16.64,0-7.51-2.65-18.85-12.66-25.62-4.41-2.65-7.07-2.95-10.01-3.24-2.5-.3-7.66-.3-9.72,0-.44,0-.74,.15-.74,.89v5.74Z"/><path class="cls-1" d="M935.92,406.07c0-19.44,0-22.97-.3-26.95-.3-3.97-1.18-6.18-4.27-6.77-1.48-.29-2.51-.29-3.39-.44-1.03-.15-1.62-.44-1.62-1.03,0-.74,.59-1.03,2.21-1.03,4.56,0,12.96,.44,13.4,.44,.59,0,9.13-.44,13.25-.44,1.47,0,2.21,.3,2.21,1.03,0,.59-.44,.88-1.62,1.03-.89,.15-1.62,.15-2.65,.3-4.27,.59-4.71,2.79-5.01,7.07-.3,3.98-.15,7.36-.15,26.8v22.09c0,11.34-.15,21.65,.59,26.95,.59,4.27,1.18,5.89,5,6.77,1.92,.44,5.01,.59,5.6,.59,1.32,.15,1.62,.44,1.62,1.03s-.59,1.03-2.06,1.03c-7.51,0-16.05-.44-16.79-.44-.44,0-9.13,.44-13.25,.44-1.33,0-2.36-.29-2.36-1.03,0-.59,.59-1.03,1.92-1.03,.74,0,2.36-.15,3.53-.44,2.5-.59,2.94-3.54,3.39-7.07,.74-5.3,.74-15.76,.74-26.8v-22.09Z"/><path class="cls-1" d="M1000.12,428.6c-.74,0-1.18,.44-1.47,1.18l-6.48,18.4c-1.47,4.12-2.5,8.1-2.5,10.46,0,2.65,1.62,3.83,4.86,3.83h1.03c1.33,0,1.77,.44,1.77,1.03,0,.74-1.18,1.03-2.21,1.03-3.24,0-10.01-.44-11.63-.44-1.47,0-7.95,.44-14.14,.44-1.62,0-2.36-.3-2.36-1.03,0-.59,.59-1.03,1.77-1.03,.74,0,2.06,0,2.95-.15,6.33-.59,8.83-5.44,11.34-11.63l29.45-77.6c1.62-4.27,2.07-5.01,3.09-5.01,.74,0,1.33,.59,2.95,4.71,2.06,4.86,22.09,56.25,29.89,74.66,4.86,11.63,9.13,13.55,11.19,14.28,1.91,.74,3.97,.74,5,.74s1.77,.29,1.77,1.03-.59,1.03-2.21,1.03c-1.48,0-12.52,0-22.38-.3-2.8-.15-3.68-.3-3.68-1.03,0-.44,.44-.89,1.03-1.03,.59-.29,1.47-1.03,.59-3.24l-11.63-29.59c-.3-.44-.59-.74-1.18-.74h-26.8Zm25.03-5.15c.59,0,.59-.44,.44-.89l-11.63-32.54c-.73-2.06-.88-2.06-1.62,0l-11.04,32.54c-.3,.59,0,.89,.3,.89h23.56Z"/></g><g><path class="cls-1" d="M605.39,61.76c1.24-.62,2.44-1.25,3.56-1.81,3.74-2.05,8.39-4.58,13.21-7-.76-1.3-1.57-2.61-2.02-3.14-.91-1.11-2.57-2.61-5.63-.89-.18,.09-1.97,1.14-3.8,2.2-1.88,1.06-3.68,2.05-3.87,2.15-3.07,1.74-2.81,4.02-2.47,5.45,.14,.61,.55,1.79,1.02,3.05"/><path class="cls-1" d="M651.77,54.47c-3-6.29-6.68-6.06-9.03-5.56-7.94,1.8-22.24,9.47-30.92,14.25-3.74,1.9-8.29,4.16-12.83,6.64l-14,30.47,31.41,5.96c4.58-2.44,8.97-4.98,12.62-7.05,8.77-4.63,23.06-12.37,29.08-18.1,1.8-1.65,4.17-4.73,1.12-10.99-.16-.38-1.95-4.06-3.74-7.8-1.79-3.75-3.56-7.49-3.72-7.82"/><path class="cls-1" d="M763.32,57.59c2.47,1.4,5.05,2.91,7.65,4.68,.51-1.37,1.01-2.68,1.18-3.39,.37-1.44,.68-3.72-2.4-5.54-.16-.08-1.96-1.14-3.82-2.2-1.78-1.09-3.61-2.17-3.75-2.25-3.05-1.77-4.72-.33-5.63,.76-.49,.53-1.32,1.84-2.13,3.18,3.29,1.56,6.31,3.18,8.92,4.75"/><path class="cls-1" d="M785.52,79.63c-8.29-8.25-16.65-13.99-24.23-18.27-7.49-4.49-19.3-9.91-27.77-11.85-2.02-.6-5.3-.82-8.2,4.79-.32,.63-7.04,13.73-7.38,14.38-2.89,5.55-.91,8.4,.59,9.88,6.16,6.52,16.85,14.16,24.41,18.4,7.5,4.48,16.53,8.84,27.57,11.81,2.04,.55,5.34,.76,8.21-4.87,.34-.61,7.08-13.71,7.4-14.3,2.9-5.63,.92-8.48-.61-9.96"/><path class="cls-1" d="M742.89,119.25l6.81-13.7c-3.1-1.53-5.95-3.11-8.64-4.68-2.69-1.55-5.74-3.44-8.83-5.59l-17.12,33.05c9.37-3.02,18.44-6.71,27.78-9.08"/><path class="cls-1" d="M661.65,128.79l-17.2-33.28c-5.18,3.06-10.46,5.86-14.61,8.05-.99,.57-2.03,1.15-3.1,1.8l7.1,14.27c9.32,2.52,18.44,6.29,27.8,9.16"/><path class="cls-1" d="M789.55,145.51c-2.17-13.41-12.36-22.76-24.89-23.83-22.34-1.91-41.62,10.76-63.3,14.86-1.71,.29-4.05-3.59-6.16-5.84,10.08-8.04,8.69-23.82-2.93-30.64-.81-.97-.53-10.07-.04-10.44,.95-.87,8.36,.63,9.41-.3,1.06-.98,.83-10.47,.17-11.34-.69-.91-9.06,.07-9.5-.58-.51-.57,.23-9.11-.58-9.75-.55-.51-2.86-.56-4.17-.56s-3.6,.05-4.19,.56c-.77,.64-.09,9.18-.53,9.75-.48,.65-8.83-.33-9.52,.58-.68,.87-.89,10.36,.16,11.34,1.06,.92,8.48-.57,9.44,.3,.45,.37,.75,9.46-.05,10.44-11.65,6.82-13.02,22.6-2.97,30.64-2.11,2.24-4.44,6.13-6.15,5.84-21.68-4.11-40.96-16.78-63.3-14.86-12.49,1.07-22.7,10.42-24.89,23.83-3.9,24.17,12.45,42.77,20.38,63.27,2.52,6.52,4.73,15.23,4.31,22.68h154.6c-.39-7.46,1.84-16.17,4.32-22.68,7.96-20.5,24.31-39.1,20.38-63.27m-111.22,53.56c-2.02,12.1-8.38,19.87-13.64,19.9-3.47,.02-6.27-1.41-8.79-3.74-3.47-3.19-6.32-8.56-5.4-11.71,.77-1.12,10.12,.44,10.81-.5,.65-1.06-1.15-8.7-2.22-9.78-1.06-.99-9.51,.28-10.63-.63-1.15-.94-2.2-10.63-3.35-11.22,0,0-8.96-1.32-9.61-.04-.66,1.42,3.04,9.37,2.38,10.78-.61,1.29-12.47-1.27-12.68,.22-.2,1.45,.68,8.49,1.81,9.48,1.13,1.12,12.2,1.16,12.2,1.16,2.31,1.78,2.88,5.61,2.9,9.52,.02,4.9-3.55,7.41-9.31,5.68-10.72-3.13-23.99-27.85-31.86-44.87-5.82-12.61-9.3-33.14,5.88-39.26,9.3-3.74,19.02-1.69,28.99,1.49,10.44,3.29,24.23,7.77,32.33,13.12,1.99,1.26-2.36,.27,4.86,17.2,3.33,7.94,6.69,24.67,5.3,33.19m63.96,19.13c-5.73,1.73-9.34-.78-9.32-5.68,.04-3.91,.61-7.74,2.9-9.52,0,0,11.1-.04,12.22-1.16,1.15-.99,2.02-8.04,1.8-9.48-.2-1.48-12.06,1.07-12.67-.22-.63-1.41,3.03-9.36,2.4-10.78-.67-1.28-9.6,.04-9.6,.04-1.15,.59-2.21,10.28-3.33,11.22-1.13,.9-9.6-.36-10.66,.63-1.06,1.08-2.9,8.73-2.21,9.78,.65,.95,10-.61,10.81,.5,.93,3.14-1.94,8.51-5.41,11.71-2.52,2.33-5.31,3.76-8.76,3.74-5.31-.03-11.65-7.8-13.66-19.9-1.4-8.53,1.96-25.25,5.3-33.19,7.22-16.93,2.85-15.93,4.85-17.2,8.11-5.35,21.91-9.83,32.35-13.12,9.97-3.18,19.68-5.23,28.95-1.49,15.21,6.12,11.68,26.65,5.93,39.26-7.88,17.02-21.16,41.74-31.9,44.87"/><rect class="cls-1" x="608.54" y="242.69" width="158.06" height="14.22"/><path class="cls-1" d="M646.31,261.28l-16.15,31.25c-1.07,2.13-2.05,4.8-2.17,6.31-.13,1.41-.39,3.74,3.37,5.88,.21,.14,2.43,1.41,4.69,2.6,2.24,1.38,4.45,2.56,4.66,2.79,3.74,2.04,5.48,.62,6.51-.45,.95-.87,2.35-2.87,3.47-5.03l21.55-43.36h-25.93Z"/><path class="cls-1" d="M746.38,292.54l-16.17-31.25h-25.93l21.56,43.36c1.13,2.16,2.53,4.16,3.48,5.03,1.04,1.06,2.8,2.49,6.51,.44,.21-.23,2.43-1.41,4.69-2.78,2.24-1.19,4.45-2.47,4.65-2.61,3.75-2.14,3.51-4.47,3.38-5.88-.16-1.51-1.12-4.18-2.17-6.31"/></g><g><path class="cls-1" d="M203.01,552.87c0-22.97,0-27.09-.3-31.8-.29-5.01-1.47-7.36-6.33-8.4-1.03-.3-2.95-.3-4.27-.44-1.03-.15-1.91-.29-1.91-.89,0-.88,.74-1.18,2.36-1.18,3.38,0,7.36,0,16.64,.44,1.03,0,30.33,0,33.72-.15,3.24-.15,5.89-.44,6.77-.89,.88-.44,1.18-.59,1.62-.59s.59,.59,.59,1.33c0,1.03-.89,2.79-1.18,6.92-.15,2.21-.3,5-.59,8.83-.15,1.48-.59,2.5-1.18,2.5-.88,0-1.18-.74-1.18-1.91,0-1.92-.29-3.68-.74-4.86-1.03-3.38-4.12-4.85-10.6-5.45-2.51-.3-18.55-.44-20.17-.44-.59,0-.89,.44-.89,1.47v40.64c0,1.03,.15,1.47,.89,1.47,1.91,0,20.03,0,23.41-.29,3.97-.3,5.89-.74,7.36-2.51,.74-.88,1.18-1.47,1.77-1.47,.44,0,.74,.3,.74,1.18s-.74,3.39-1.18,8.25c-.44,4.56-.44,7.95-.59,10.01-.15,1.47-.44,2.21-1.03,2.21-.88,0-1.03-1.18-1.03-2.36,0-1.33-.15-2.8-.59-4.12-.59-2.21-2.35-4.27-7.66-4.86-3.97-.44-18.55-.74-21.06-.74-.74,0-1.03,.44-1.03,1.03v12.96c0,5.01-.15,22.09,0,25.18,.3,6.04,1.18,9.27,4.86,10.75,2.5,1.03,6.48,1.33,12.22,1.33,4.41,0,9.27-.15,13.25-1.33,4.71-1.48,6.33-4.57,7.51-10.9,.3-1.62,.59-2.21,1.33-2.21,.88,0,.88,1.18,.88,2.21,0,1.18-1.18,11.19-1.91,14.28-1.03,3.83-2.21,3.83-7.95,3.83-10.89,0-15.75-.3-21.49-.44-5.89-.15-12.67-.44-18.41-.44-3.54,0-7.07,.59-10.9,.44-1.62,0-2.36-.3-2.36-1.18,0-.44,.74-.74,1.62-.88,1.47-.15,2.36-.15,3.39-.44,3.09-.74,5.01-2.8,5.3-13.84,.15-5.74,.3-13.25,.3-26.36v-25.91Z"/><path class="cls-1" d="M279.44,531.08c0-4.56,.44-6.04,1.62-6.04,1.03,0,3.53,2.95,4.56,3.98,1.32,1.47,21.8,22.38,42.41,43.44,11.49,11.19,26.21,26.36,30.04,29.89l-1.62-61.26c-.15-7.95-1.03-10.6-5.01-11.63-2.5-.44-4.71-.59-5.74-.59-1.48,0-1.77-.59-1.77-1.18,0-.74,1.18-.89,2.65-.89,6.33,0,12.52,.44,13.84,.44,1.48,0,6.04-.44,11.78-.44,1.62,0,2.07,.15,2.07,.89,0,.59-.44,1.03-1.33,1.18-.89,.15-2.06,.15-3.68,.44-3.39,.74-4.42,2.21-4.42,11.04l-.3,73.92c0,7.36-.29,8.1-1.32,8.1s-2.51-1.03-9.72-7.8c-.59-.3-21.06-20.62-33.87-33.13-15.31-15.9-30.04-31.22-33.72-35.05l1.91,57.58c.3,10.16,1.18,13.99,4.86,14.87,2.35,.59,4.86,.59,6.04,.59s1.77,.44,1.77,1.03c0,.74-.74,1.03-2.36,1.03-7.95,0-13.25-.44-14.28-.44s-6.48,.44-12.81,.44c-1.33,0-2.21-.15-2.21-1.03,0-.59,.59-1.03,2.06-1.03,1.03,0,2.65,0,4.56-.59,3.24-1.03,3.98-5.01,3.98-15.76,0-70.24,.15-47.56,0-72"/><path class="cls-1" d="M473.52,610.59c0,5.89-.15,6.04-1.77,6.92-8.1,4.12-19.88,5.59-27.09,5.59-9.57,0-28.13-.74-43.14-13.25-7.95-6.63-15.91-19-15.91-35.78,0-20.02,10.16-34.31,22.24-41.53,11.34-6.63,23.86-7.51,32.83-7.51,9.43,0,15.76,1.18,21.06,2.06,2.35,.44,8.1,1.18,11.19,1.33,1.17,0,1.17,.59,1.17,1.18,0,1.77-1.03,6.18-1.03,19.14,0,2.06-.15,2.65-1.18,2.65-.74,0-.88-.89-1.03-1.77,0-1.33-.59-5.89-2.8-9.13-3.39-4.86-13.99-10.31-30.48-10.31-7.95,0-17.23,.3-27.09,7.81-7.51,5.74-12.37,16.93-12.37,31.51,0,17.52,9.57,30.48,13.4,34.16,9.72,9.42,20.61,13.69,33.42,13.69,4.12,0,10.6-.74,13.99-2.5,1.47-.89,2.5-2.36,2.5-4.42v-21.2c0-9.72-.74-11.63-5.89-12.37-.88-.15-2.35-.3-3.53-.3s-1.77-.59-1.77-1.03c0-.74,.59-1.03,2.21-1.03,5.89,0,14.43,.3,15.02,.3s9.28-.3,13.25-.3c1.47,0,2.06,.3,2.06,1.03,0,.44-.44,1.03-1.77,1.03-1.03,0-1.32,0-2.5,.15-3.54,.44-4.42,3.09-4.71,7.36-.3,4.27-.3,7.95-.3,13.25v13.25Z"/><path class="cls-1" d="M511.66,563.03c0-19.44,0-22.97-.3-26.95-.3-3.97-1.18-6.18-4.27-6.77-1.48-.29-2.51-.29-3.39-.44-1.03-.15-1.62-.44-1.62-1.03,0-.74,.59-1.03,2.21-1.03,4.56,0,12.96,.44,13.4,.44,.59,0,9.13-.44,13.25-.44,1.47,0,2.21,.3,2.21,1.03,0,.59-.44,.88-1.62,1.03-.89,.15-1.62,.15-2.65,.3-4.27,.59-4.71,2.79-5.01,7.07-.3,3.98-.15,7.36-.15,26.8v22.09c0,11.34-.15,21.65,.59,26.95,.59,4.27,1.18,5.89,5,6.77,1.92,.44,5.01,.59,5.6,.59,1.32,.15,1.62,.44,1.62,1.03s-.59,1.03-2.06,1.03c-7.51,0-16.05-.44-16.79-.44-.44,0-9.13,.44-13.25,.44-1.33,0-2.36-.29-2.36-1.03,0-.59,.59-1.03,1.92-1.03,.74,0,2.36-.15,3.53-.44,2.5-.59,2.94-3.54,3.39-7.07,.74-5.3,.74-15.76,.74-26.8v-22.09Z"/><path class="cls-1" d="M561.73,531.08c0-4.56,.44-6.04,1.62-6.04,1.03,0,3.53,2.95,4.56,3.98,1.32,1.47,21.8,22.38,42.41,43.44,11.49,11.19,26.21,26.36,30.04,29.89l-1.62-61.26c-.15-7.95-1.03-10.6-5.01-11.63-2.5-.44-4.71-.59-5.74-.59-1.48,0-1.77-.59-1.77-1.18,0-.74,1.18-.89,2.65-.89,6.33,0,12.52,.44,13.84,.44,1.48,0,6.04-.44,11.78-.44,1.62,0,2.07,.15,2.07,.89,0,.59-.44,1.03-1.33,1.18-.89,.15-2.06,.15-3.68,.44-3.39,.74-4.42,2.21-4.42,11.04l-.3,73.92c0,7.36-.29,8.1-1.32,8.1s-2.51-1.03-9.72-7.8c-.59-.3-21.06-20.62-33.87-33.13-15.31-15.9-30.04-31.22-33.72-35.05l1.91,57.58c.3,10.16,1.18,13.99,4.86,14.87,2.35,.59,4.86,.59,6.04,.59s1.77,.44,1.77,1.03c0,.74-.74,1.03-2.36,1.03-7.95,0-13.25-.44-14.28-.44s-6.48,.44-12.81,.44c-1.33,0-2.21-.15-2.21-1.03,0-.59,.59-1.03,2.06-1.03,1.03,0,2.65,0,4.56-.59,3.24-1.03,3.98-5.01,3.98-15.76,0-70.24,.15-47.56,0-72"/><path class="cls-1" d="M679.54,563.03c0-19.29,0-22.82-.3-26.8-.3-4.12-1.33-6.18-5.6-7.07-.88-.15-2.35-.3-3.53-.3-1.03,0-1.91-.44-1.91-.89,0-.88,.74-1.18,2.21-1.18,2.94,0,6.92,.3,15.16,.44,.74,0,26.95,0,29.89-.15,2.95-.15,4.57-.3,5.74-.74,.88-.29,1.03-.44,1.62-.44,.3,0,.59,.29,.59,1.03,0,.89-.88,2.95-1.18,6.63-.15,2.5-.29,4.86-.44,7.66,0,1.33-.29,2.21-1.03,2.21s-1.03-.59-1.03-1.62c-.15-2.21-.59-3.68-1.03-4.71-.88-2.95-2.21-3.98-9.57-4.42-1.92-.15-16.49-.3-16.79-.3-.44,0-.74,.3-.74,1.18v33.42c0,.88,.15,1.47,.88,1.47,1.77,0,16.79-.15,19.88-.44,3.38-.15,5.59-.59,6.77-2.21,.59-.88,1.03-1.18,1.62-1.18,.29,0,.59,.15,.59,.88s-.59,3.54-1.03,7.81c-.44,4.12-.44,7.07-.59,8.98-.15,1.18-.44,1.62-1.03,1.62-.74,0-.88-.89-.88-1.92,0-.88-.15-2.35-.44-3.53-.59-1.92-1.48-3.98-7.07-4.41-3.39-.3-15.32-.59-17.67-.59-.89,0-1.03,.44-1.03,1.03v10.75c0,4.56-.15,17.52,0,20.03,.29,5.45,1.03,8.25,4.12,9.57,2.21,1.03,5.74,1.33,10.75,1.33,2.8,0,7.51,.15,11.19-.89,4.41-1.33,5.45-4.27,6.63-9.72,.29-1.47,.74-2.06,1.33-2.06,.88,0,.88,1.32,.88,2.21,0,1.03-1.18,10.3-1.62,12.81-.59,2.95-1.62,3.24-6.48,3.24-9.72,0-13.84-.3-18.99-.3-5.16-.15-11.93-.44-17.38-.44-3.39,0-6.18,.44-9.72,.44-1.33,0-2.06-.29-2.06-1.03,0-.59,.59-1.03,1.32-1.03,.89,0,1.92-.15,2.95-.44,2.65-.59,4.42-2.51,4.71-11.63,.15-5.01,.3-11.04,.3-22.24v-22.09Z"/><path class="cls-1" d="M755.08,563.03c0-19.29,0-22.82-.3-26.8-.3-4.12-1.33-6.18-5.6-7.07-.88-.15-2.35-.3-3.53-.3-1.03,0-1.91-.44-1.91-.89,0-.88,.74-1.18,2.21-1.18,2.94,0,6.92,.3,15.16,.44,.74,0,26.95,0,29.89-.15,2.95-.15,4.57-.3,5.74-.74,.88-.29,1.03-.44,1.62-.44,.3,0,.59,.29,.59,1.03,0,.89-.88,2.95-1.18,6.63-.15,2.5-.3,4.86-.44,7.66,0,1.33-.3,2.21-1.03,2.21s-1.03-.59-1.03-1.62c-.15-2.21-.59-3.68-1.03-4.71-.88-2.95-2.21-3.98-9.57-4.42-1.92-.15-16.49-.3-16.79-.3-.44,0-.74,.3-.74,1.18v33.42c0,.88,.15,1.47,.88,1.47,1.77,0,16.79-.15,19.88-.44,3.38-.15,5.59-.59,6.77-2.21,.59-.88,1.03-1.18,1.62-1.18,.3,0,.59,.15,.59,.88s-.59,3.54-1.03,7.81c-.44,4.12-.44,7.07-.59,8.98-.15,1.18-.44,1.62-1.03,1.62-.74,0-.88-.89-.88-1.92,0-.88-.15-2.35-.44-3.53-.59-1.92-1.48-3.98-7.07-4.41-3.39-.3-15.32-.59-17.67-.59-.89,0-1.03,.44-1.03,1.03v10.75c0,4.56-.15,17.52,0,20.03,.29,5.45,1.03,8.25,4.12,9.57,2.21,1.03,5.74,1.33,10.75,1.33,2.8,0,7.51,.15,11.19-.89,4.41-1.33,5.45-4.27,6.63-9.72,.3-1.47,.74-2.06,1.33-2.06,.88,0,.88,1.32,.88,2.21,0,1.03-1.18,10.3-1.62,12.81-.59,2.95-1.62,3.24-6.48,3.24-9.72,0-13.84-.3-18.99-.3-5.16-.15-11.93-.44-17.38-.44-3.39,0-6.18,.44-9.72,.44-1.33,0-2.07-.29-2.07-1.03,0-.59,.59-1.03,1.33-1.03,.89,0,1.92-.15,2.95-.44,2.65-.59,4.42-2.51,4.71-11.63,.15-5.01,.3-11.04,.3-22.24v-22.09Z"/><path class="cls-1" d="M828.56,563.03c0-19.44,0-22.97-.29-26.95-.3-3.97-1.33-6.18-5.89-7.07-.88-.15-2.36-.3-3.54-.3-1.03,0-1.62-.3-1.62-.88s.44-1.03,1.77-1.03c6.33,0,15.32,.44,15.61,.44,1.32,0,11.33-.44,15.46-.44,8.25,0,17.23,.74,24.15,5.6,2.79,2.06,8.83,7.95,8.83,17.96,0,8.1-3.98,18.4-15.61,27.83,10.75,13.25,19.58,24.15,27.09,31.95,7.07,7.22,11.48,8.39,15.61,8.98,1.03,.15,4.12,.3,4.56,.3,1.18,0,1.62,.44,1.62,1.03,0,.74-.59,1.03-2.65,1.03h-10.31c-6.92,0-10.16-.44-13.4-1.77-6.18-2.65-10.6-9.28-18.26-19.14-5.74-7.07-11.63-15.02-14.14-18.11-.59-.59-.88-.88-1.77-.88l-15.17-.15c-.59,0-.74,.15-.74,.74v2.06c0,11.78,0,22.53,.74,27.83,.44,3.54,.88,6.48,5.74,7.07,1.47,.15,3.09,.3,4.27,.3,1.33,0,1.92,.44,1.92,.88,0,.74-.59,1.18-2.07,1.18-7.66,0-15.9-.44-16.49-.44-2.36,0-8.84,.44-12.81,.44-1.47,0-2.06-.3-2.06-1.18,0-.44,.88-.88,1.77-.88,1.03,0,2.06,0,3.24-.3,2.5-.44,3.39-2.06,3.83-5.59,.74-5.3,.59-17.38,.59-28.42v-22.09Zm11.34,10.45c0,.74,.15,1.47,.74,1.77,1.92,1.03,7.81,1.92,13.1,1.92,3.09,0,6.77-.15,9.87-2.21,4.42-2.8,7.36-9.28,7.36-18.7,0-16.05-8.54-24.88-21.65-24.88-3.69,0-6.77,.3-8.54,.74-.44,.15-.88,.59-.88,1.33v40.05Z"/><path class="cls-1" d="M932.09,563.03c0-19.44,0-22.97-.3-26.95-.3-3.97-1.18-6.18-4.27-6.77-1.47-.29-2.5-.29-3.39-.44-1.03-.15-1.62-.44-1.62-1.03,0-.74,.59-1.03,2.21-1.03,4.56,0,12.96,.44,13.4,.44,.59,0,9.13-.44,13.25-.44,1.47,0,2.21,.3,2.21,1.03,0,.59-.44,.88-1.62,1.03-.89,.15-1.62,.15-2.65,.3-4.27,.59-4.71,2.79-5.01,7.07-.29,3.98-.15,7.36-.15,26.8v22.09c0,11.34-.15,21.65,.59,26.95,.59,4.27,1.18,5.89,5,6.77,1.92,.44,5.01,.59,5.6,.59,1.32,.15,1.62,.44,1.62,1.03s-.59,1.03-2.06,1.03c-7.51,0-16.05-.44-16.79-.44-.44,0-9.13,.44-13.25,.44-1.33,0-2.36-.29-2.36-1.03,0-.59,.59-1.03,1.92-1.03,.73,0,2.36-.15,3.53-.44,2.5-.59,2.94-3.54,3.39-7.07,.74-5.3,.74-15.76,.74-26.8v-22.09Z"/><path class="cls-1" d="M979.94,531.08c0-4.56,.44-6.04,1.62-6.04,1.03,0,3.53,2.95,4.56,3.98,1.32,1.47,21.8,22.38,42.41,43.44,11.49,11.19,26.21,26.36,30.04,29.89l-1.62-61.26c-.15-7.95-1.03-10.6-5.01-11.63-2.5-.44-4.71-.59-5.74-.59-1.48,0-1.77-.59-1.77-1.18,0-.74,1.18-.89,2.65-.89,6.33,0,12.52,.44,13.84,.44,1.48,0,6.04-.44,11.78-.44,1.62,0,2.07,.15,2.07,.89,0,.59-.44,1.03-1.33,1.18-.89,.15-2.06,.15-3.68,.44-3.39,.74-4.42,2.21-4.42,11.04l-.29,73.92c0,7.36-.29,8.1-1.32,8.1s-2.51-1.03-9.72-7.8c-.59-.3-21.06-20.62-33.87-33.13-15.31-15.9-30.04-31.22-33.72-35.05l1.91,57.58c.3,10.16,1.18,13.99,4.86,14.87,2.36,.59,4.86,.59,6.04,.59s1.77,.44,1.77,1.03c0,.74-.74,1.03-2.36,1.03-7.95,0-13.25-.44-14.28-.44s-6.48,.44-12.81,.44c-1.33,0-2.21-.15-2.21-1.03,0-.59,.59-1.03,2.06-1.03,1.03,0,2.65,0,4.56-.59,3.24-1.03,3.98-5.01,3.98-15.76,0-70.24,.15-47.56,0-72"/><path class="cls-1" d="M1175.65,610.59c0,5.89-.15,6.04-1.77,6.92-8.1,4.12-19.88,5.59-27.09,5.59-9.57,0-28.13-.74-43.15-13.25-7.95-6.63-15.9-19-15.9-35.78,0-20.02,10.16-34.31,22.24-41.53,11.34-6.63,23.86-7.51,32.83-7.51,9.43,0,15.76,1.18,21.06,2.06,2.35,.44,8.1,1.18,11.19,1.33,1.17,0,1.17,.59,1.17,1.18,0,1.77-1.03,6.18-1.03,19.14,0,2.06-.15,2.65-1.18,2.65-.74,0-.88-.89-1.03-1.77,0-1.33-.59-5.89-2.8-9.13-3.39-4.86-13.99-10.31-30.48-10.31-7.95,0-17.23,.3-27.09,7.81-7.51,5.74-12.37,16.93-12.37,31.51,0,17.52,9.57,30.48,13.4,34.16,9.72,9.42,20.61,13.69,33.42,13.69,4.12,0,10.6-.74,13.99-2.5,1.47-.89,2.5-2.36,2.5-4.42v-21.2c0-9.72-.74-11.63-5.89-12.37-.88-.15-2.35-.3-3.53-.3s-1.77-.59-1.77-1.03c0-.74,.59-1.03,2.21-1.03,5.89,0,14.43,.3,15.02,.3s9.28-.3,13.25-.3c1.47,0,2.06,.3,2.06,1.03,0,.44-.44,1.03-1.77,1.03-1.03,0-1.32,0-2.5,.15-3.54,.44-4.42,3.09-4.71,7.36-.29,4.27-.29,7.95-.29,13.25v13.25Z"/></g></svg>